/* XPM */
static char *a18eb32abfa04a05e97d1f7a95f878a4Ud9UwCnwt8wdPCa2[] = {
/* columns rows colors chars-per-pixel */
"64 64 45 1 ",
"  c #170F07",
". c #0F1700",
"X c #171F07",
"o c #1F170B",
"O c #131313",
"+ c #1B1B1B",
"@ c #2B230F",
"# c #232B0F",
"$ c #332B13",
"% c #3F2F17",
"& c #3F2B1B",
"* c #2F371F",
"= c #232323",
"- c #272727",
"; c #2F2F2F",
": c #373F27",
"> c #373737",
", c gray23",
"< c #43331B",
"1 c #4B371B",
"2 c #4F3B23",
"3 c #4F3B27",
"4 c #533F2F",
"5 c #3F472B",
"6 c #474F33",
"7 c #574333",
"8 c #5F4B37",
"9 c #53573B",
"0 c #67533F",
"q c #434343",
"w c gray28",
"e c #4B4B4B",
"r c gray31",
"t c gray34",
"y c #6F5743",
"u c #775F4B",
"i c #5B6347",
"p c #676B4F",
"a c #6F7357",
"s c gray39",
"d c #7B7F63",
"f c #836B57",
"g c #9B7F6B",
"h c #9F876F",
"j c #8B8B8B",
/* pixels */
"i566966$=$<5557952$=1599iaafpq9$*:65:*:555555555:*###*5555:55:::",
"ii66999:-*:i9r9625$@:699iaadp955**5::**6655666666***::556666::56",
"i966i96:*:599995:*@@:699iaaaa955**;::**:666666665*#*56:*665:*&56",
"i996565@@6i999995@@*:99iiiaui955@**555**698996665**6666555:*:::6",
"i965*:@@i95$9ia95@@*56id999iip9r@:*566:*6699i966::59668995:**:56",
"ai6:$*@5599595ii5@*569i6969iip65:@*6665:699pi996::59986806:&*&66",
"ai6:*@55555i55669@:9dai965666666:*:666656ipi996:*:6y96699&$:*#55",
"i6:5:5$55w96i56:**9daai65566655e*:::99569ii998:*#:6996565*:*@#**",
"66595>9i59595i6559pddp96555i65:6#*5:5656996995#*#665695*::5*@:@*",
":56$959iii96996:9idiii966$5ii6::$$***55656696*##:696696*#*:@*5::",
"555;;5ii5ii59955iippii96955ii655*#$#::565565*XX#*566656:*#.X55#*",
"66>$w6666i9i99666ippipi5955696655*.@*:55666*#Xo#*:::55:**XX#55**",
"969q965599ii66699pdddp9955q4i666::@.@*6566:*o#**5:*:555*-5,**5:=",
"99995969969i556iipfaap96969i9::6,5@*5*::55*#**56665:@:5:*:5:*::*",
"6ii99i9pi666::9pappadi9669iii:56*::599*****:5666966:*@*5:**:::**",
"iiiiii9i96:5@:9pipppaai969ipi666:5*:6y6@#*566696996:**;55**:::**",
"aaaiai9a6:*@@596pa99iapi66paa96956::566*o#:68656i96*o+*:5::::***",
"ifaiai696%$@*5ii6p669pi96:9ii555@*65*:*#o.*69666966*o**::::**::6",
"aaaaiiii9%@@:6pai69666966::99965*:95::*oo.*:6568966*=6:*:*:**::6",
"aaiaai996%@:69pfaa65*:966i96iaii5:6*@5*..X**5566666::565:3:56565",
"iaiaia66:$$59paappa6::666i999pii*@:#@:$XXo#*::566666655::::::566",
"iap5a9::*$:6iappaaa9:6555p999p9p*:*:56$$#o++**35666665**:::::5:*",
"999a96:*:::9aiiaia955<:5:ii999ii::5:5:$##+o==*5:666666:#**335**#",
"96<$:5*:::60iaaiaaiaai666ipi966i::5*6*o*#@;-*::55666665*#*:::*#*",
"96$$55:**:6iaap5dipadp9669pi969i:*:*59***=@*:665553665::*#***##*",
"65::596-+o$9iapaaii6pp9655i9966a*:@*55;*o****66653666:::*#X#*:::",
"5:::59;-=o$5iadfda9rip9655q99669*:**5:@*o@;##5669:5565:**XX*:555",
":<:555$$$o :6iii999padi$$55iii66*:***:;@o#:*o*5665::5***#X$*:545",
"<<:59$$$$=o>69ii559pdf5o$95iaa96:**;&5:@##**#*5556***#o5:*#*3546",
"5:55955=O=;-6999wr9pd9o59$5aaai9::*:5::*##*****555:*#*535**::554",
"i95>99;oo;;o9i9999aaa9$5959aaapi5*:555::###***#*:5:#*:::***:5554",
"$o5ip6o$15:;959ii9ida9$:5999ddia:*:565**##*****#**5**33:***::356",
"***::***##**:**#*;*;:********@@*59pddp96555i65:65i949:$@$*559995",
";;;::***#*************:5:@@@-@*:9idiii966$5ii6::56996:*@@*569999",
",::::::**:::#*55:5:*****##@@o@**iippii96955ii655*:69:****@5i9694",
":::555***:65*#65565:5::#***+Oo@*6ippipi59556966555:****::@665556",
":5555:**:::5*X:66665355*::*@+o@*9pdddp9955q4i66696:*@*5955965:9i",
":::::**::::*###:6666555::::=o+==ipfaap96969i9::6i6***:5669ai6566",
"5****##****:::*#566666:5::5*@@@*appadi9669iii:5696*5i5659ii96996",
"*###*****::565**:6666555:::**#@*ipppaai969ipi66695559666ii596i99",
"#XX*66655556665:*5666565::***#@*pa99iapi66paa9696556i669ai99696i",
"#X#*69665556666:*:66::65:**5:@#:6p669pi96:9ii5556:96669iai69699i",
"**#*59666645666:*556:666**:5:#**i69666966::999656i9i6566iii659ip",
"55*#:6664665666:*#*:565:*::::*::aa65*:966i96iaii99i9i9569i6559ii",
"66:**:665666645*X##*:55***3::**:ppa6::666i999piip99i9i66696669i9",
"665*o*56666665**#o#*55**#*:*::*:aaa9:6555p999p9pa99iii9699669i66",
":35***:55555:*o#XXo*5##o#:***@*:ia955<:5:ii999iiiiiiiii96i56pi65",
":::**5:5*****##**#o#**=*#,*@:@*5aaiaai666ipi966iiiiiiiii6:56669i",
"::::*5544:********#XX@@*::::5*@:dipadp9669pi969iiiiiiiii95*::6ii",
":*33:55665::54455*#XX##**@**55**aii6pp9655i9966aaiipppppp55599ii",
":*:*55555355:5666**@X#**@***55**da9rip9655q99669pppaaaaai6*6ia96",
"**:*:555555*:5696*@@=*#**;=:5**,999padi$$55iii66pdfddaaai66apaai",
":***55:5555**5685#+@#**#:;*::*:5559pdf5o$95iaa96paddddaa99idaafd",
":@@*55555555:5665=+@@*;**:**:::*wr9pd9o59$5aaai9padddddp99iddfaf",
":$$#*54555455:565#+@**::;:**:::*99aaa9$5959aaapipaddddp969ahdaad",
":**::54655555::56*@#::::,****:::i9ida9$:5999ddiaaaaddf96:9addaaa",
"5:*::554555355::**@**56::56::**:iiaad5$::5i9iaiaaaaddi:5:aaiadi5",
"::::5554465:546:**#**55::66::**:iiaidi$$<<556iiaipadp6*:9adaada6",
"3;&::356665:5566*#:;*55*:555:**:iaipdi-555<:99iaiiai65*:6aappia9",
":&*:555555355566***::5:553:55:*;9a9pa6o5i5$$59iiaap6**@:6999ii96",
"*&*::56555355585***:555665::55*:i9i,i$o599$$$6piap95@:66i969iii5",
"**:::55555:55565****:665566:@+**saiip55:ti$5i5a9pi6556apapp9$9i9",
"==***:555555555:****36656666:@+*aipajaw$599idd556669aapadaa95$5i",
"@*@+#*55:555665**::*:65665555*@*aaaagd5o9i59aha$*5apaaaadap955wi"
};
