/* XPM */
static char *_3610d577fe840f3867776d7ab558b0bftYZgAA6CGs016f5[] = {
/* columns rows colors chars-per-pixel */
"41 67 77 1 ",
"  c None",
". c #1F170B",
"X c #2B230F",
"o c #332B13",
"O c #3F2F17",
"+ c #430000",
"@ c #470000",
"# c #4F0000",
"$ c #530707",
"% c #5B0707",
"& c #5F0707",
"* c #670B0B",
"= c #6B0F0F",
"- c #731313",
"; c #771717",
": c #7F1B1B",
"> c #4B371B",
", c #533F1F",
"< c #5F4323",
"1 c #5F4B37",
"2 c #6B4727",
"3 c #774F2B",
"4 c #7F532F",
"5 c #67533F",
"6 c #6F5743",
"7 c #775F4B",
"8 c #831F1F",
"9 c #872300",
"0 c #932F00",
"q c #A73F00",
"w c #8B2323",
"e c #8F2B2B",
"r c #972F2F",
"t c #9B3333",
"y c #A33B3B",
"u c #A73F3F",
"i c #9B5B13",
"p c #AF4300",
"a c #B74700",
"s c #AF7B1F",
"d c #875733",
"f c #8F5F37",
"g c #9B633B",
"h c #A36B3F",
"j c #C34F00",
"k c #CB5707",
"l c #AF4747",
"z c #B34F4F",
"x c #BB5757",
"c c #BF5B5B",
"v c #836B57",
"b c #8B735B",
"n c #AB6F43",
"m c #B37347",
"M c #BF7B4B",
"N c #937B63",
"B c #CB7F4F",
"V c #C76363",
"C c #CB6B6B",
"Z c #D37373",
"A c #DB7B7B",
"S c #9F876F",
"D c #A78F77",
"F c #CF8353",
"G c #D78B5B",
"H c #DF9363",
"J c #E79B6B",
"K c #EFA373",
"L c #F7AB7B",
"P c #DF8787",
"I c #EB9797",
"U c #FF9B9B",
"Y c #FFB383",
"T c #FFBB93",
"R c #FFBF9B",
"E c #F3A3A3",
"W c #FFC7A7",
/* pixels */
"                   z                     ",
"                  zr                     ",
"                  rw                     ",
"                  :wo>                   ",
"                 o;:a<o                  ",
"                 =:-&aO                  ",
"                qxe8&kaO                 ",
"               phClyVMf,                 ",
"               jHACVHJJ2                 ",
"               dGRYJRYHdJ                ",
"               gMWJnGDKgM                ",
"               BYKm2mUYM4                ",
"                hdGJGBm2                 ",
"                > isiM2o                 ",
"                2 O,OF2                  ",
"                4j232MO                  ",
"                 3iii38                  ",
"                 O,<,O=                  ",
"                 0*:=t6DN                ",
"                 lVztmGKG                ",
"               7vrzuFKHJM                ",
"               57BmvYMbGFv               ",
"               12hGSTZEPJc               ",
"                2>2GKTTKJF               ",
"                424mfdnFn                ",
"                q<4f8=e                  ",
"                 9>f288                  ",
"               lxc9<fhhi                 ",
"              ycVCzy<42                  ",
"              llccxy8-=                  ",
"              ltlzcCr88                  ",
"             lxuxVAzwtw                  ",
"              =w=#lC8y-                  ",
"             rz=wVAZc:                   ",
"              :uzeuz:#                   ",
"              etue-$#                    ",
"                * $X&&                   ",
"                - ;e:*                   ",
"                88e8-24                  ",
"               yw-*-2ffd                 ",
"              wzrww2fMnfy                ",
"              tulzdzGmzcl                ",
"              ww32d2fHmlt                ",
"               *f4<>B>2gx                ",
"               @2mBKHm,>                 ",
"                OXO2m43ou                ",
"                 X;oOd2e                 ",
"                 dg4<O24                 ",
"                nVcFMmgmB                ",
"               BCZVILJKGG                ",
"               MVCVHYKHGM                ",
"               zMVuhHRLJFJ               ",
"               :lB<gYG>3h                ",
"                rxGKTRLh3F               ",
"                8yefHFnHn                ",
"                8rO><dnMg                ",
"                88<>OO                   ",
"                 =yxX<                   ",
"                  ;lgmg                  ",
"                  Or42                   ",
"               X>o$;$O3 ly               ",
"          >3o <2O*$=@$<3ztlz             ",
"     &$  >d,+2d>8;@=:&4d:ezr             ",
"    &;&#X3,O>f<8t8&:e,huey;XX8u          ",
"      XXoX..<>*;e:$:,g3=:3O.%%8%XoX;,    ",
"O,  O>Oo$O$X$$-$+%@&3>3O@O<>O*%*#.#,  8 ,",
"       >OoOooX@=:%Xo,<oX$*o>>>..XO, ,    "
};
