/* XPM */
static char *_c377419b0a74a73b251a269cd86fb8deHEftVM4gYaGdFso[] = {
/* columns rows colors chars-per-pixel */
"128 128 76 1 ",
"  c black",
". c #070707",
"X c #0B0B0B",
"o c #170F07",
"O c #0F1700",
"+ c #171F07",
"@ c #1F170B",
"# c #131313",
"$ c #1B1B1B",
"% c #2F1B0B",
"& c #13230B",
"* c #17330F",
"= c #2B230F",
"- c #232B0F",
"; c #372313",
": c #332B13",
"> c #3F2F17",
", c #3F2B1B",
"< c #2F371F",
"1 c #232323",
"2 c #272727",
"3 c #2F2F2F",
"4 c #373F27",
"5 c #373737",
"6 c gray23",
"7 c #430000",
"8 c #530707",
"9 c #432F1B",
"0 c #43331B",
"q c #4B371B",
"w c #473323",
"e c #4F3B23",
"r c #4F3B27",
"t c #4F3B2B",
"y c #533F2F",
"u c #1F4317",
"i c #27531B",
"p c #3F472B",
"a c #5F4323",
"s c #474F33",
"d c #574333",
"f c #5F4B37",
"g c #53573B",
"h c #6B4727",
"j c #774F2B",
"k c #67533F",
"l c #775F3F",
"z c #434343",
"x c gray28",
"c c #4B4B4B",
"v c gray31",
"b c gray34",
"n c #5B5B5B",
"m c #6F5743",
"M c #775F4B",
"N c #5B6347",
"B c #676B4F",
"V c #7B634F",
"C c #6F7357",
"Z c gray39",
"A c #7B7F63",
"S c #777777",
"D c #836B4B",
"F c #836B57",
"G c #8F7753",
"H c #8B735B",
"J c #937B63",
"K c #9B7F6B",
"L c #9F876F",
"P c #A78F77",
"I c #AF977F",
"U c #838383",
"Y c #8B8B8B",
"T c #B79F87",
"R c #BFA78F",
"E c #FFCFB3",
/* pixels */
"445404444444y441X14242442444444444222@224222444422$24442@14s62@#o2@2##$@24544@2#X14242442444444444222@22=========2$24442@1@@@=@#",
"7wwpssppp6pppppppssspssssssssgffssppsfsfsssssssxsspsssssssssppsspp6p46p6sspzzzz6pgs6zssppssspppsszp6ppsxppsssggsggssxssspsptwwww",
"77wpfgfss66psss66gNgsgNNNNNNNNNNkNggsNNgNgNNNgNgggssggssgggzp6cv6666z336sggssgggggpppcnbzpNspppggppzp6cgp6gggggggNNNsmNNspwwwww7",
"77777;ws33@144e0@pCgpgACAABBCACCCCNBgNACssACNCNgCsN@pNgpN@s:g3333::3:   @Np&@@:p4:pz@pgppCN@#::xspgp1:bC4:gNgggpsCCAFYgy,777777@",
"7777777wpzx:4p@p0*gpppACCAMCAACCNFNCgNCCNNNgNCCgggCpgNpggp:::p:@:p31&#o#:ppo  &::pp@:g:o1SCzp3:3gNBg2:ggpsNNNg4sgNNNpfw%777777%<",
"@77777777,:3pspypvpp:gsCACCCCCNssggssgLNACNNCCCM5Ngggggpg11@@3zp3:p3@11&#&@  #pzNv:&:zz1#pppggp@@gg:1:zNbgNNB:*sNNxgt%7777;777%-",
"==77%r7777%p3pzpgppNgppCggCACBNssp:vpssgNNNCCCNpNpgNg:pp:op@o:gNpzg53334x4#  1CNvNNgbzgz1##1gCp15p::31ug2NN4is@pNg@@7777%,=77%<-",
"::777,w%7777,p:xggpgpgpNgsCBBNCNgs4<4spsgsNCCNNpgNgss---2&@##:gpNANpvp1pg---o3NgvNCLCppp:1pgCN4:gp111:&uop:@ui:pgp%7777:ty777,<=",
"::%%%--:;7;7%%<,pgpgggNp3NskCCCpCAg<OsggsssCggg0g-pBsCy4-1##::@pNNggNp@@-4gNNsp:NgNACgsx4:4bCgpNgp0g>#&::p::*u@1:;%%%,tsg:%%%--@",
":=:%%%:-we,%%;%-ttdd<<--tBFyCCBpACpsssBAgssCgN-gsNNCCNCs4p&#@:p4pp::4p3p4sCNCCNNsg-NCNNCg:yNgpbZp0:---d4t--<<dd;;%%;-w4ew%%%,-=@",
"-=:%%%,,wtdt;;;;;tttgsmYp<AAyAkFgdNBNCACBssCs-4gBBBCCCGNsNs@#3gNgpp11vsNsNGCCCBBBg4-CBp:gz:gz5-msF--pBB<sNmsgt;;;;ttttdtw%%%,,=@",
"-<::%%%,tt44ft;,,,gJPPJANNCFGJFN:NCFdBABNNp--:yBBBNCCCmfd,;;77777777%;;,dfkCCCNBBBy:-Ng3p:@ppmNN:NCJGFCNNAJPMaq,,kfff44t;%%00::=",
"<<--;;;rysdpsfy;;,wqkJPPJJHJJAFCBFCCFAJmdgs4syNNNCgfwrwwwww,;;77777;;,wwwwwrwfgCNNNysgNg-MMBFCCFBCFAJJHJJPFaaqwMffffspdw;;;44-:=",
"<<:w,;;;dkkMkggkdq,;;,NAAgyNAFJJLPAJPJC:g4-ssNCgf,,w,www,ww,,;%777%;,,ww,www,w,,fgCNssNNg:CJPJAPLJJFANygAV,,;;NFMkggkMk,;;rrr:-=",
"$<4@<%%;tksggkMgmkyaayaAJN<sNBCJJCCPTP4:<s44syww;,;;;;;;tssy4sssNsss4yssw;;;;;;,wwwys44s<:4PTPCCJJCBNs<NarayaVHFmgMkggy,;;ww-@<@",
"<4p<<:%%;4-<sssfBMNmayyyMTJNNCgyNCNATGsygg4,weee,,;wpgNNgNNs<yyyNyyy<sNNgNNfy;;,teeew,4ggysGTANCNygCNNJFyyyVJANMBfsss<%;;w<<-<<@",
"<ss4<4;%;-=-<pssgggCFmaajMPUPAJNgNsNNNgggfw,wetewygNNNBgyCCsssyNCNysssCCygBNNNgseetew,wfgggNNNsNgNJAFmMMaaVJFCgggssp<-%%;<44<<<@",
"==q<<<<;;;fspssp44ssCFkqfhkJJPLTPPANsANeefwwffgNsNNNNBCsBUg4sCNNNNNCs4gUBsCBNNNNsNgdfwwfeeNAsNAPPTLFjjkhfFFFCss44pssp;;;p44<<-4@",
"=====<<%%%<spsfsgNBNNC4-<wthfVFPPTTsNVtfteegNNNNNNNNNGCNCByyNACsNsCANyyBCNCGNNNNNNNNNgeetftVNsTTPJMffhts<-4CNNBNgsfsp;%%<-<<<::@",
"<s>>==-=%%%<gp44sNNCCABNsgwfeeNBCBBCjffetgNNCCCCCCNCACCCCNsCCCCCCCCCCCsNCCCCACNCCCCCCNNfteffjCBBVffeefsNsNBACCNNs44p;%%--=-=::p@",
"<sCp<<<4;;%,s<--pgCCCCANCCBf,wetNgBjhkfkNBNCANCAAAACJFBFNNNNFNBCCCBNFNNNNFBFJCAAAACNACNBNNfkhjkeftewyBBCCNACCCCgp--<;%%444---s<@",
"-4sp<<<<<;;%p,==4gBCNNBNNCACge,tftkjfkVGCBNAACAAAAAFFCCCsCABNgNCBCNgNBACsCCCFFAAAAACAANBCGAkfjktftygCCACNNBNNCBg4==%;%<p4<--44-@",
"-<444p<<4:;;4s<<p4sN<<NgNNCCBCkteMMmFFAAANNJAFCFFFFAACCBNCBNNNNCCCNNNNBCNBCCAAFFFFCFAJNNAAAJMmMMeNACBCCNNgN<<Ns4p<<;;;s44<-:<@@@",
"-<<:<p4<-<%%%<p4pgBgyy6<gB<-NCNekMfjVAAACCAAAFFACFAAAACNNBCNCCNCFCNCCNCBNNCAAAAFCAFFAAACCAVkkjfMkeNCN-<Bg<6yygBgp4;%%-<<--<:@<@@",
"<<p4:44<=-%%%,<<ppgCBggss4@4s4,FMfkhkjFACJJCFJJJAFFJCNgsCCCCCAFFJFFACCCCCsgNCJFFAJJJFCJJCVhjkhACMF,4s4@4ssggBCgpp<%%%<<-=p:@@=@@",
"0<pst==-,--%%%,,ppsNBNNBgysy,wkFAFFkkkMkNPJFFJJAFAJFNNsCACFCBFJJJJJFBCFCACsNNFJAFAJJFFJFtkMkVAPFAFkw,ysygBNNBNspp%%%-,--,-@=--@@",
"<psp4=:=-,-%%%@-ppysgNgggsB,%fMACJJFkkjkkFJGPJJJJJABNNNCCCAAAAPJJJPAAAACCCNNNBAJJJJJPGDMkkjAAAJJCAMf%,BsgggNgsyp0%%%,,-,-=:=:@@@",
"<sCgp44<--=:%%%,=<Ngsgsssgf,,kABFJJJJVhhjjlJJJJJPAsCNNBCFAAAPPPPJPPPPAAAFCBNNCsAPJJJHjjjjhFJJJJJFBAk,,fgsssgsgN<%%%@::=--$@1#:$$",
"<pCBNNgp4:-:%%%-t<y<@<ggNe%wCAsBJJFJFJFBMhjjDJJJANNNNCCFAJJJPJPPJPPJPJJJAFCCNNNNAJJFMjjhFBFJFJFJJBsAkw%eNgg<@<y<%%%--=p==::pg3=@",
"<sCAFACgd4:-:%%%<6yy<@<gC;;tCs4TJNJBFAAPHDMjMjNsNCNCFFJFHJJPPPPPPPPPPPJJHFJFFCNCNstjMjMJJPAAFBJNJT4sCt;;Cg<@<yy%%%===:=pp:pp::$@",
"@pCNNgggby4--%%%-<6y<<<yw%;BB@CTsCJNPFJPJPJMjfwNCBCCFHJJJJJPTJPPPPPJTPJJJJJHFCCBNtwfjHPPJPJFPNJCsTC@Bg;%%y<<<yw%%%=pp@:@p5pp:1$@",
"2@BNNppgNgNbv-%%%@<yy6<%,%<B4@TTyANFTFJJJPPFfw,tfNCFFFFJJPPIPJTPPPTJPIPPJJFFFFCkft,wBJPPJJJFTFNAyPT@4B<%%%<6yy%%%=4g:&3p3:p5:3=@",
"#4gggxvgNNNNgp%%%:=<ss%;e@yy@gL4CBqTJJJJPPJJs4tfffBAJFJJJJIIJJITPTIJJIIJJJJFJVffffN4sJJPPJJJJTqBC4Lg@yy@%;%ss<%%%=zp::pp::ppx:=-",
"@4NggggCCNNNN:#777-:4;%%By<<yy::F4CTJJJPPJJNssgfffkfVAJPJPTPJIIPPPIIJPTPJPJFkfkffNBssNJJPPJJJTC4F::yy<<yy%%;4%%74xpxgpppppppp:=-",
"$4pgNNgNAgpbg@#777,g<%%%gBgsy<<s@FPJAFPPLJNysNCCVkkkkVPJJTPFPTPIJIPTPFPTJJDkkkkVCCCNsyNJLPPFAJPF@s<<ysgBy%%%<777ssspspgNg:::5:<<",
"@3gNgNNCCz33:&@:777w%%%yy4gCy<y<4JPPNPTPPCysNNCCJFkhhjjFPTAPTPIPPPIPTPATJljjhhVJJCCNNsyCPPTPNPPJ4<y<yCg4yy%%%77<gNgsssss4p::@:<-",
"14NsgNNCggpppg:377777%-:s<<AsgssPAJPBLPPPg<NgNNCAAAVjjhjJPJPTPPPIPPPTPJMFjhjDBAAACNNgN<gPPPLBPJAPssgsA<<s:-%777dNBNgNgg4psp1#@=-",
"<4gggNCNNgxpNNzz,77777s :s<NssNCPAJJFJJPA<yBBNBCAFCJHhhMMjJPTPPIPIPPTJjjMMhFPJCFACBNBBy<APJJFJJAPCNssN<s: ;777wBBBBNkNNsggp:1@=-",
"<4gNggCgNCCgNNgNw7777wN$@yCB<sNAGCJHJJPLg<sNNNCCABAIJGFMMjMJPPIPPPIPHMMjMJJGJIABACCNNNs<gLPJJHJCGANs<BCy@$,7777yBCBBNNNgggg3@21$",
"<4NgNNgN3pCgg:gBy7777dB4y44NAyNGNAsAAAACs4NBNBJCgJTFsFIJhhMMMKPPPPKMMMMFFIIFsFTJgCJBNBN4sCAAAAsANGNyAN44y4777777fCCBBBgNggNp::=-",
"-pgggZCNN2gz5sgg:7777<g-syygC4NsAN4FAPCyssssNAGsFIJNNPTPFFMMMMJPJMMMMHPFFPTPNNJIFsGANssssyCPAF4NAsN4Cgyys-777777,BCBBNNNgggppp=-",
"13pp4CNBBgb3pggt777777t-@gBBg-ssB<yCPByygNNNCN4BITssPTPAAAHMMMMMMMMMKPPAALTPFssTIB4NCNNNgyyBPCy<Bss-gBBg@%77w,777fCBBNBNgggppp=-",
"-<pggCCCNggpgNg:777777yNo<gRgo-4N@yTCsyNCCCGC:4PTA4NTTPFFJLHHMMMMMMJPPLJFJTTBN4ATP4:CGCCCNysCTy@N4-ogRg<o777yf777,BBggBNggpNg:<<",
"$<zgCACNNNbggNt777w,777t@<sPN@o4gyBLgyNPJGCCy4NTT44FTTFCJJLJMMMMMMMHJPLJJJTPssNATTN4yCCGJPNygLByg4o@NPs<%77wBC:777fBgBBBspgNgp<-",
"-4NNCCNNNCNvggw777ff777yN<ysgsN<yBNggCPAPCsCPJTRs@sJTTACJJJMjMMJJMMjjJJFBLTJ@sTJJPCBACCCCBy@@sTs@ys@CC<C777fBCt777tgNBNgsggggp4<",
"<pNNCBNNNNNggd;77=fA<77%@y4ys<yggysNCAAAGJPPAATRB@NPRIJBJMMFMjJPPJMjjMFNNTTyyTPFFJJPPNBCBByg<<Cy-ss4Cgo%77wBBMf=77,sgNNssskggs<<",
"<4NNNCNNBNNNNy777wNCk77%--s4gs4sssNNCAAJJJPCCATRAsgJTTJBhMMMJPPPPJHjjMjtFTANPTJJFFJJTCsNgy@CL<<BCNs:NByo77fBBNs=777yNNsp4sgsgg<<",
"<pNNNNNBNNNNgw777sgAAt7%7sss<syyyBggBPAJPJBCNCPPPPCATLMhfjMJARJPTJPFFMhfMFNATPJCBBFFACgys@@NRC6AgAAsgBeo7wNNgs=,777wN44=4gppp:<<",
"@skggggNgNpNg:777sgCCM777ssgosg<ggygNPCNCCNBCAAGTTAGJFMMfGPNFRFJPCPFgJtjFkfJPPJCNNCANNBNy@:yAUCygUCNgB;o7tsssp<0%77,pp3p4bp:g:<<",
"@1gggpsNg4sNt777=gsgCNr7%%gNo<ygg<gNBPCsNFAFAPJNAPHhMFMMJAg4IRFJPBPTssJHFjkMFFFJJJJAACCCs<y<sAPyCC4ssto7wgsspppp,7770::sggggNp=<",
"<=s@NpgNp@Ns9777yCsssCg%o,ssy<yNyBN4CssCCANAAFPIJFhhjMJJPPJGPFNPF4FFJJJJFMkffMHJPPJANsssNgyyCBsy4<<<4o77yNggNMMNy777,44pp:ppNN<-",
"@=:pggpNgpCg=777fgNssgs-%,,<<<yBssFN<<NggssNsFJPMMttjPJPIJJPPg4JF4CJPPJJJJNekMjJJJA4-s<4sg@4Agg<:44<%o7wNkNNgNCCf=77=ppp:pppNN<-",
"@@11gpgggggt777:CNNCsp4$o%%@<g4sB<PP@<<<<@@@4gFMjjhNCJPPTPPTPs4PCyFAPPJFFFNFMjjMjBso@::sy@<BsUB1<4<@o%7yNNNsgNCAB,777wpppz3gNp<2",
"o@po:pp:gNgp777<CCNNs4<oo%%@-gy4C4gRB<y<@<@ @%tMjjJNNCJTPPPPPgsTFsCJJPPGGNNJJFMjfw<@@@4g<:g<bKg<6<<%o7wNNNNssNBFNw777wppgxpggs4<",
"##@&2#34ssgt777rgspsp4<o@,;%@4NgBs@PR4@<<11,;,wkVAJBsNGPPPPPANsRP4NFPJJFNsBPJJJtw,;,11<<@4@BA<<4g::@77dNNNNNgNCBN3777wzppgppgg4-",
"@##1##p#gp:,777yg4pppsp-o,77%@gC<PP@N#=g<1,tt,@NCAAJs<NAAJFBFs<TJsNCJJACssGAAAN4@,tt,1<g=#A66s:Ng0777wMNNNMNNgNCNp777wggzgppgg4-",
"@#&####o44p=777yggssgNgp-w77%ogC<CR<$#<Ce@;ffg<yCAAPN@yCCABBF4:JC4sCAFNC4yNGANs:<gff;@eC<#1<V@<Ng,777dMCNNNNNggNBp%77,ggbspppg4<",
"#@@@##@#:Nt777=NsgggBCAspBw7oosgNsCC@o@ff,%gACN<BCNAA@:NCCsNA4<AB@sAACBN:4NCBN4@NCAg%,ff@o<ANo<ky777wNNMNNNkNNggsp;77=dggNCggs<<",
"@=g:@1:1z:w777:sggpNNBCsss-%%%<<CC<gyo%fHm#-UCC-sNNCA@ogggsgC4@By@sCBBBy@yNsgg@:CCU-#mHf%oPJ4o:<<777dNNMMCNgNMBgsp,777yggCCggp<<",
"#<Nsp:pg:#;777tvgNggNCN--@$<%%%#JR1<awofTRs CUAoyNgNC-.syysgN<@C<oNCNNN@ogssg4ogAUC sRTfowm;g<.@%;%wgkNCCCNgNNCCs4,777ysgNNNgp<<",
"@<gg::Ngp1;777tNsspppCg@o44s;;%@CT:hmh;@UPRB$yg@#<g<4@@y<=1yg##g@ <4sgy#o<<g4.<Cgy$BRPU@;h%ww<<<%;%<NNNNNNkNNNCCsp0777yNNkgNNg<1",
"@=zN1:Cgs:;777tgpp:bggp@$<ysN;%%Mh;wF4C<<gCTGs@<#1<<<o<Cy@$<<o#<#o<-<4<<@$<y@o<<@sGTCg<<C4;,;;%%%;44gNCNNNkNNNFNpp0777dCCNggNN<<",
"-4gppgNNgp,777tsppgpNs-#<<sBB,%%whw%R44yAAsNFCo<@<@<<.1Cy1@@1@<y@#===@<g<@@=@@NGoCFNsAAy44syw;%%%;<@gNNNNNgNNNCNpp0777fNNBCg:2<-",
"<4gggpNNNgw777tspsNpp4@$ysgBBg%%,ry@sC<:NJACN<$yb11@yy<yyy==11gg<@y<<1sB@1<1<=AI$<NCAJN:<CABC;%%;,4@<gNNNNNNNNNNppw777fNBBBCg:$-",
"<pgNNNNNggw777ws<ssp<::<<gBNg;;%;MA4CC@NggFs@B1BB@<<yUB<gBB<1<yBy<yyBg<y<yg<<syBByBN:y<@CCgPNs%%;;;4spNNgNNNBCNppgw777fBCNNNNp=-",
"<4gNNNNNNsw777wsNp4<:=@-sBN,;w;;;wBgCH sTCNBCAA4@y<yABNCTJ4<4yCNky<BUACCCCy<<ssNLCsyNNCNosPPC%%;w,,w%-gNgNNgNCgsgk:777fBFNNsgN<-",
"<pgggNNCNgw777yNs4<:=:- @dy%wrsworJ<BLy<ysPFATB<s#$Ng<CCCUJ4@gUA=-CPAACgyCy@4ysBPRP4@<4@@PPANo%,kfw,o%0pgNNgNCNspgw777kCCMMggNp-",
"<4NNgNNNNNy777yNgp<=<4-oowh%rCCgowk@#HPBNBFNGTC@@-:y@sBgPTJ4@sBN<<AJACCCy6<ogT4NJPRPsys-CRBP;o;fCAN%o777wsgNCCgs4gy777kBCCCvzg3-",
"<pNNNNNNMNd777yNgs<<p<;7o%h4sAC4;,hgo<gg4sCNRRB<$y4@@syALPAs:NAs@gAAPAgBN@o-RC4AgATPPCggLJAk;%,AAC4o-7777wgNCCgs<sy777kBCAAgpg5-",
"<sCBpANBBBf777yNgspsw7777%sJCAA4Bwwhy<1@gPANTIgg<yg#@@yJJJTA<NTB<gLAARA1goossNAyNAAPTPAAUAN;%;NLRNo-=:7777;dNNBs<p,777fCCCCCBN4<",
"<pCBCCNNNBf777wgsss;7777w4-4Cy<44;;;sABAATyoTN CN<x<o@NNFJTLssPssBFPPJP4 NC4Co<4NPBBPJCFFA:%;,NRRo-===4;7777wdgspp,777yNgBCCNg4<",
"<sCAFACgvNC%77,pp:7777=ygg-@44y<:<w;;syCACo@A@ JR#gCo@sBJJPJsNLssAPPPPC-:44II o@AJgNJJsCJN;;;dFRsop44<<4,7777;ws4s,77%dNgBCNNgp<",
"@pCNNgggBCA<777,77777:kBBBpo@44:<4,,;gyygysy<$@CP<sC@.yBJJPTNNJssPJTIUB@Cy<RP @NC4NNsN4NCN;%;4gT@.ggg4:=<p,7777,sN%77,ssssggssp<",
"2@BNNppgBAFp7777777,kNCAABs-o<4g4yy;Mf<yyNTsyC=BHg4C4.yNAJPTCNPsNFCRTB<sN<gUs gRs@AyBCs4At%%4:sN -gyg4:=:<pw77777,777,ssggNCNNp<",
"#4gggxvgBAg@77777,yNCCCAAAN---sgC<yomf@gysA<BB<CxBNBx sNBJPJCCCNACJTPN@C<<Cys#sC=NCgCC444%;,4<<@=sggs4<==<psgw7777777tgggggNNBs<",
"@4NggggCCCg;7777qfNNNCCAAAABN4<sN<o<,;@<BC<yy=gFy@CCC @BNCJJJFgNPATTBgL@@A4syCC@<N< AT4Ne;7yNspp<4sg4<<<<=pNgsw777777wNgNgggsNd<",
"$4pgNNgNgk,7777,gBANCCCCAAFAFgpss@@C,%;@@Jg1@ygFC#gUF osNGALJFsCPFPPsCB NTyC<gCogAooRN<Cw,wygssppp4<<<<44=sspppww77777yNNggNpgs<",
"@3gNgNNs<7777777gNCNCCCCAAFCCNgC-@<gy%,, 4C<<gyCB4NJC  <NGGJFBsAJCRFBC# UPNgyNy@Ngo$B<4k,;4-Nsssgs4<=<pgppgsp4gNt777777dBggNggp<",
"14NsgNd:777%:777psNNCNBCAAACNNNA-@6y<@,, :444ssNgsNJC   yAFJJs<PAATCC< oAAAggg4<<<@@@<6ee;@sg44sNs<<<4pssgCNspssw77777777tssgNp<",
"<4ggy:7777:2p777,ggNCNNCCACCNNCC-<g<##,;@@o<s<yBNCNACo .osAJTs@PTPPJ<  ogPCsNs4<o@yy@s%%fy<sN4psgs<pNpspgNNgsggs,777w,77770ssN4-",
"<4g<777779s@p=77%pgNNCCCCBCBNCCg@:4Jy ,eo@1#<@@NNCPAs ##o yAEs PRAAsoo# <PANCy@#6=@<<<%;w44-gsssgpppgsssNNpgsNgg%77wgs,77777ws<-",
"<0,7777;6N:@p4777:sppCAANgNgNNNg<<<CNo<%o%<o@1=yNCAPgo@1o.<BEy ARAC<#1$ 4PACA@o<y1@<@%%%<C@-pgsgsppsNssgCNggsgst777tspp,,7777,4-",
"@777778wtypp4w777,ps4pgspps4<pss4<y<6<<%%%$o@ooyBCATC@#@@o@sR< gICN@@1@ogRCBN@@y<@#1<%;%<C -ttwwwwwwwwtyfdttwtt,777,wwww0;77777-",
"77777777777777777777777777777777%%;%%%%%%%%oooo%tfkMk;@@%%;%w;o;;wfo@%%;fFfk,o,;%%%%%%;%%%%%777777777777777777777777777777777777",
"77777777777777777777777777777777%o;,%;%%%%oooooofkfMM,@%%%;%,,oo,f,%%%%,kMff;o,%oo%%%%%%%%%%777777777777777777777777777777777777",
"777777777777777777777777777777%%%;%%;%%%%oo%oo%o;kfkFk%o;,%tm@oofk%%;%;tMkMto;@ooo%%%%%;,%%%o%7777777777777777777777777777777777",
"-4ydfffdfkkfytty777yyytwss4ppg-@yCs<Tgo<<oo%.o4o@CCJTP<#<y#gC$<oCH$<<@yCAAC<@g# o o%%%sNCg<y<@-tfyyyyyytttwwtw777wyytwwtyffyyfw:",
"<pNNCBNNBCCBNsNf777yBNgp<<<<4s@-sNN4Cg@y< o%%oy< sAAPIy@@g@sP@@oAA@y<<NCAFA<<g<@# o%%yBBNgyys<@sNNNNNNNgsNpsBw777gggssggNNgggNs<",
"<4NNNCNNBCBNgNNCw777dNCp==<:<--sNAAy4@<g@ o%%#gy sFGAPs1<x@gA<@oAB@g<:CFAJN#<xy@$ o%%<NPCBNygy#sNNNNNNNNs4pss777yNNNNgggNNBNNNp<",
"<pNNNNNBBBNggpgg4777yBBp====:@4sCPCCg<yg#  @%@g< sFBAPg=<g<yC@@@Lg<g@<APACs#<g<@#oo@@<BGGCsNgg@gNNNNNNNNgp<4,777NNgNNggggNNNgNp<",
"<4ggggggNNMMNgsNNt777gpp4<::<@yNCACBgx<<o  o%%y@oyCCCTg@yBy4B<@<As4g#gPACCy@<Ny@#oo@<gANCAggBsogCNNBBBBBBppp777yCCCCggNCNgspss<<",
"<4ggskkNNNCCNggNMsw777:4p4<<4oyBCLCyBB<1  ooo;%@s<BddAPC@4<4C4-gCyNosRG$=C4s4sg#ooo#yBCsgFCgsgosBBBCCCCCNs<777:sCCNgpyNCCbpsss<-",
"<pggsggNNNNNkssNNsy777:pppp44-yNCTC@NCy@  ooo%o@GNdoNNLRgo@gC4:yAg <RAsN:sCg<<<oooooyBBCCCAysN@sBAFAACCCNs,777kNNNgpgggCCggppp<-",
"<4gspgggNNNNNspgNsgy7773pppp4:4NgTL<yHN@o oo@@o%TNo4C6LTg<<NA4 gTs@LRssP:sT6<@ooooo<gBCCCBNyss@sBCAAAACCgt777fFAANgspgNCN:ppss<-",
"<4ggppggggsssppsgsgNw777pppp4<<g4CTCNCg<@o #@oo%BB@<ysCBCCgCA4<ACsCIByCP<NU@@@#oooo<BBAUBByyN4:gBCAAAAABg777,FCFKCgypyCCppppNN<-",
"<pNgppssggspp4pNssps3777,zpss@<C<<JACCsB<  $$ %;;6<y@yCNCANCCsBCNCANygAU<CBo@@%oo @sBBAAAN<sg<BNBCAAAABgw777mCCAAy0gp4NN4z3gNp<2",
"<pNs444pkMNNNMNNpsss<<777wggNx-yg@@JPNgNgo Cy ;e%@@-o@AC444NAB@<CBg<-AP<$@@<6 wkoo<BBAPAN@:s<ANCCCCAAFgw777kACCCNpgp:pppgxpggs4<",
"<pNs=pgkNMCNNNNNssAs44,777tbBBg-44oNTFNBC@oRy ye%;4so@4Ny@sAPN@6CCC-yT1#<<@CyotK.oyCBALLyo@4NCNCCCCAANw777fNCANpggNp:g:pbgppgg4-",
"<4kNgpggNNMNNNgssgAf=:p0777yBBNs-4.4TPCNB@6R< <f;;<C@o1g@oNNANo<CBNoBB 1g4<P#ofTy#yBCLPC@ 4psNNCNBCABy777fBCCACsssg:pNggggppgg4-",
"<4gggggNNNMMCNspgNBkppppw777fBBBg<@$ATACs$CR4 $ge,;Ty xL$ s:y4o<11<@yN@oCygCoomRy.gABPTs 404ggNCNNCNs777wNCBBNCgssppNNpp:spppg4<",
":wgkxyggkNCCCg4NNNCgpgzpy777,fBCCg- 4JPCs@KRg o@ee,AC sTy BCg=@1yNx#<J<oCNN1o%CRN yBCTT@ -::pgNNCCBs,777sgggNNgsppppNNpppNCggs<<",
"<<pgysgNNNNNNpppgNCp:gggNy7777fCCBg-osTLy<IR<<<##,o,I<@TB<HCAC BPAC@NL@Bgyg%o;TIC<sCPTg -g:::sBNCBy7777yNgsgNNNp5NbppNg3zCCggp<<",
"-<0pysggNCNgs<=4sNNppsgNNNd7777kNBBso4RI:NRRs@g1@;o;KyoTCsPCUC<CCAC@AA@A@<B%oeTTC:sAPT@obN:pNpCgBy7777fBCBBg:gNgpgNgsggpxBBCg:$-",
"-::ppgggNggg4==:pgNppyggBCNy7777fNNg@@RT@NTAC@<<@C@@fs LAsTCACyACAUoTB$B stooCPTN@NATJ -pggNAAppw7777fBCACCgp:pNgpsgggppgNNNNp=-",
"-<333pspg=pgNspp4spppNgkCCNBfw777dfB-@RR44gCL<#<@Be;;y CJsTCCCgACPC<T<o@4C;o,LCN<4JARN@@gNpgCLf:777wfCCCACBgppxNNppgggppgNNsgN<-",
"-<1:p:24ppsgNgssgsspggxNBNBCCNf7777t-@TRF@-NAC@#$<B%%% 4CsPgCABCCJNyC.<Ng;o%NCg@oNLJT4<pNCggNf7777wNFCNCCCBs@2pgNggggpppsMMggNp-",
"14:::&@ppgNgNgsgggsgk:pNBBBFCCCk7777:sTPL$.yCLs#yo@%;;gB@.GyBy<BgN@<yyBys%o%Cs@ CRGPP:-g:sCNw7777<pBACCCACBp@ppggggssggCNCCvzg3-",
"-<p<<::1:ppgNNggs4<pdggNBCCCCCCAk777%;VBL1ogBLsoC:@@%;%Tg-Hsg@oBBB1CHBg<%%ogBB@oPLNTJ:BNsgf,7777:<pgBNCFACBs3CgpgsgppggCCAAgpg5-",
"@<p444<21pppsggs=4<pgMgNBCBCCCCCCCd7%q,@A< B4C<@Js@o%%%AC<TTA4<RPC6LHg<$%%oygB@oRCsTP<NgNy7777,<<gpsNNBBCCBggNCNgkgNCNCNNNNNgBs<",
"<<sppppssssggggs4ssBNBNNCNNCCCACBBB-%a%%ax.<<:@NBgy##%%;C<APJgyTHCyCC<oo;; <yN@oPs<RAygw7777;w00<=<sggNBBBBBBNNggggggNCCNgNNNNs<",
"<4ssssssgggggNgspsNggCNggNBBCCACBNg-<T%o,,%=o<NBsyBy$%%%C4sGPy<PAg4B<o1%,;@#<< Cgo<RF:77777wdC0e4=11pskgBBBBBNgggggggNgsgNgkNNy<",
"<p0ssp4pgNgsNNNNp4sppNNNgNBBCCCBNgN< sN%o%%%;%sy:4gBgN%%%<@4s@osg<@o:B,%%@yC4<CAooN,;%777;ydNge441@33sNgBBBBBBgggskkNssssNgNNMy<",
"-4scpgggggggNNpsp4ppsNBNpgNBCCCNNgN- <NNoo%%%%%%%4B<1U,%%@<<<@<<-@@gNN;%%=#<4yy@o%%;%%7;wyspBs@p4:x6pggNNBBBBBNggsgggspsskNNNNs<",
"<tggpNgyggggNNpp4ppggNNNggNBACCCNNNg@@4y<@o%%%%%%%%%.NB%,%sg@<Cs<<LLy%%;N@@#@%%%%%%;%%ydgpgpNApsp3:pgBBNNNkBBBggspgsspspsNNggNs4",
"<psypsggsgNgsgggpssggBNggNNBCACgNCCNg-@y<@@@11%%%%%%%%%%;,yPP:NRA=JB<%%,%%%%%%%%%%%4@-BNpg:pNNzp=pppsBBBNkCBBggggpppsgggNNNNNMs0",
"<<sg:NNgggNgsgNNgggygCNNNBBCACBgsNFBsg-<@@@<@1<xg%%%;%%o%;%%;%%,%%;%%%%;%%%%%%%%-o$@-CBNpgppNg:p=:x44BBCAgNNBNgssp<sgNNNNNNNNNs<",
"<<sgpgNNgggggNNNNggsNCNNBBCAACBNpgCBNgsg-1@<@<BCB<o<;%%%%;%%%%%%%%%%,;,%%%%;;Ns<@#-NBACNpgppsgx:=4gp=sNBCNggNssp440sgNMNNNMNNNs<",
"<0csgggNNgpgggCNgsgNNNNBCCACACBNggNNggsggg@1@<BAUy=y4sBNd;%%%%%%%%%,,;;%s<<HPCy$@pNAAACNgppzyNg:<4sp4sBNNCsssp=Ngp4skNMCNNNNNNs4",
"<pgsNgpgNgpssgCNggggNNBBCCCCCBBsNNNgpggggN-@#<yBTBs<@gygC,%;yggCCNyq,%@y:@yHKB@o-gBFCCBNggsgNggp<<pppssNNNgsssNkNssggNNMNNNkNNs4",
"<pgsgpppNNspgNNgNNggBBBBBBCBBNNBNNgpybggNNg-o:4NCLN<44syCd;;;BCACN;,;444<@yKPso-gCBBCANgNsgNNNgg<<4pss4sgNg4pgggsssgNNNMMCNgNMs<",
"<pNsggppgNgsNNpNNNNNBBBBgNCNNNNNsgNygNggpgNg@@<:gAPgo@4sgB;,;fACNd;;%@s<@ogTA@@sBNBNBCCNgsgNBNsp4<ppssp4psNpskkgspsggkNCCCNgNNs<",
"<sNgNNyxNNsgCNggNgsNBCCBNNCggNNgNggpsNggpsNgs-4@:4NKd osNy<%%wNCg%%%<gNC $KB$gNNsBCNgNCBNsgBCCggpppNksp:<4ppsgppgssgNNNNNNkNNNs<",
"<sNNNNggNspNCNsggggNBCBCNNNNNNgNNgpppgNgppgpps--4<<sC@yCCBy%%%fCy%%%NCNg$6p<gCCCNsBgsgBNgsNNCNNvppsNNgp<<4ss5pp4pssggNCNNNkNNNd<",
"<sBNCNgNggNCNNNgggNBBBBNNNNCCCNNNNgggggggppsgsgggpssg-<CNBBy77;y;77dCNNN$@-gBCCCCNsgssNgsgNBCNCgyppNNss<<4sggs4:ppgggNNNNNgNNNs<",
"<sBNCNNgNNggNNNgpgNNBBNNNNNNCCBgNCNgggsgggppgssNBBBNNppBCCBf;77,77;NCCCBNgNCNCCBFCCspp4gsBNCCNBgg4<pppppsgNNNsp333pspgNNNNNNNNp<",
"<sNNBNNNgNggNNNgsgNNNNNNNNNBBBBNNBNgggggggsppssgNBCBCCNNNCCNy77777dNCNCCCCCCCCCCCBBCs4gssCNNCNBgp::=:=ssgNBBNsp<:p<<4sNNgNNNBCp-",
"<sgBCNNNNNNNNBNNgNNNNNNNBNNCCCCNNCCNggNgsggspsssgNNBBBNNNCCNd;777;fBpCCBCCNCCCCBBCCCg4sggBBgCNNs<:=:==sBBNBNgsp:::&<ppsNgNNgNC4-",
"<s<<<<<<<<<<<<<<<<<<<<<<<<<<<<<<<<<<<--<--------<-<<<<<<<<<<:=777=<-<<<<<<<<<<<<<<<---=-<<<<<<--+@+--@-<<<<<<---+@@@++---<<-<---"
};
