/* XPM */
static char *f7795b987003414fea02fb52d7ecd78cUm03NcUn8sdqlQU2[] = {
/* columns rows colors chars-per-pixel */
"128 128 62 1 ",
"  c black",
". c #070707",
"X c #0B0B0B",
"o c #170F07",
"O c #0F1700",
"+ c #171F07",
"@ c #1F170B",
"# c #131313",
"$ c #1B1B1B",
"% c #13230B",
"& c #17330F",
"* c #2B230F",
"= c #232B0F",
"- c #372313",
"; c #332B13",
": c #3F2F17",
"> c #3F2B1B",
", c #2F371F",
"< c #232323",
"1 c #272727",
"2 c #2F2F2F",
"3 c #373F27",
"4 c #373737",
"5 c gray23",
"6 c #43331B",
"7 c #4B371B",
"8 c #533F1F",
"9 c #473323",
"0 c #4F3B23",
"q c #4F3B27",
"w c #4F3B2B",
"e c #533F2F",
"r c #3F472B",
"t c #474F33",
"y c #574333",
"u c #5F4B37",
"i c #53573B",
"p c #67533F",
"a c #434343",
"s c gray28",
"d c #4B4B4B",
"f c gray31",
"g c gray34",
"h c #5B5B5B",
"j c #6F5743",
"k c #775F4B",
"l c #5B6347",
"z c #676B4F",
"x c #7B634F",
"c c #6F7357",
"v c gray39",
"b c gray42",
"n c #7B7F63",
"m c gray50",
"M c #836B4B",
"N c #836B57",
"B c #8B735B",
"V c #9B7F6B",
"C c #9F876F",
"Z c #A78F77",
"A c #8B8B8B",
"S c #B79F87",
/* pixels */
"ccczz;+++++;+66@;clit;+++++;+nkkllrrl;+++++;+lcgllili;+++++;+@ii;@#@o;+++++;+3rtrnl2a;+++++;+;tlla;<r;+++++;+iitr33**;+++++;+ill",
"ccc,;3tiiit3;+611lc,;3tiiit3;+nckci,;3tiiit3;+zlllt,;3tiiit3;+af1##,;3tiiit3;+3lli;,;3tiiit3;+;li;;,;3tiiit3;+litr3,;3tiiit3;+ii",
"zl=,rillzllir,+6@r=,rillzllir,+ccc=,rillzllir,+ict=,rillzllir,+22;=,rillzllir,+r3;=,rillzllir,+str=,rillzllir,+tr3=,rillzllir,+i",
"l,,rrillzllirr,=6,,rrillzllirr,=l,,rrillzllirr,=i,,rrillzllirr,=;,,rrillzllirr,=;,,rrillzllirr,=i,,rrillzllirr,=r,,rrillzllirr,=",
"l=,rrtilllitrr,=r=,rrtilllitrr,=t=,rrtilllitrr,=4=,rrtilllitrr,=2=,rrtilllitrr,=l=,rrtilllitrr,=@=,rrtilllitrr,=r=,rrtilllitrr,=",
"i,,3rrtiiitrr3,,i,,3rrtiiitrr3,,t,,3rrtiiitrr3,,l,,3rrtiiitrr3,,r,,3rrtiiitrr3,,f,,3rrtiiitrr3,,4,,3rrtiiitrr3,,l,,3rrtiiitrr3,,",
"i3,33rrrtrrr33,3i3,33rrrtrrr33,3i3,33rrrtrrr33,3i3,33rrrtrrr33,3l3,33rrrtrrr33,3f3,33rrrtrrr33,3i3,33rrrtrrr33,3i3,33rrrtrrr33,3",
"t3=r3,,,,,,,3r=3r3=r3,,,,,,,3r=3c3=r3,,,,,,,3r=3i3=r3,,,,,,,3r=3l3=r3,,,,,,,3r=3l3=r3,,,,,,,3r=3i3=r3,,,,,,,3r=3;3=r3,,,,,,,3r=3",
"i,=r33=,,,=33r=,r,=r33=,,,=33r=,n,=r33=,,,=33r=,3,=r33=,,,=33r=,r,=r33=,,,=33r=,i,=r33=,,,=33r=,r,=r33=,,,=33r=,#,=r33=,,,=33r=,",
"i=+it3,===,3ti+=l=+it3,===,3ti+=l=+it3,===,3ti+=r=+it3,===,3ti+=i=+it3,===,3ti+=;=+it3,===,3ti+=6=+it3,===,3ti+=%=+it3,===,3ti+=",
"i=,llit3=3till,=l=,llit3=3till,=l=,llit3=3till,=l=,llit3=3till,=i=,llit3=3till,=o=,llit3=3till,=;=,llit3=3till,=@=,llit3=3till,=",
"i=t,+OrtrtrO+,t=i=t,+OrtrtrO+,t=c=t,+OrtrtrO+,t=t=t,+OrtrtrO+,t=l=t,+OrtrtrO+,t=;=t,+OrtrtrO+,t=6=t,+OrtrtrO+,t=2=t,+OrtrtrO+,t=",
"i=rO  +,i,+  Or=t=rO  +,i,+  Or=l=rO  +,i,+  Or=3=rO  +,i,+  Or=f=rO  +,i,+  Or=r=rO  +,i,+  Or=1=rO  +,i,+  Or=s=rO  +,i,+  Or=",
"43tO  Or=rO  Ot3t3tO  Or=rO  Ot3i3tO  Or=rO  Ot3,3tO  Or=rO  Ot3i3tO  Or=rO  Ot3r3tO  Or=rO  Ot3r3tO  Or=rO  Ot3i3tO  Or=rO  Ot3",
"ltl,++3= =3++,ltrtl,++3= =3++,ltltl,++3= =3++,lt=tl,++3= =3++,ltitl,++3= =3++,lt;tl,++3= =3++,ltitl,++3= =3++,ltitl,++3= =3++,lt",
"ltllit=++O=tilltttllit=++O=tilltltllit=++O=tillt3tllit=++O=tilltutllit=++O=tilltrtllit=++O=tilltitllit=++O=tilltitllit=++O=tillt",
"z3r,+O,O3O,O+,r3l3r,+O,O3O,O+,r3c3r,+O,O3O,O+,r3r3r,+O,O3O,O+,r3o3r,+O,O3O,O+,r3l3r,+O,O3O,O+,r3i3r,+O,O3O,O+,r3r3r,+O,O3O,O+,r3",
"zn3O O=3t3=O O3nzn3O O=3t3=O O3nzn3O O=3t3=O O3ztz3O O=3t3=O O3zrz3O O=3t3=O O3zlz3O O=3t3=O O3ziz3O O=3t3=O O3ztz3O O=3t3=O O3n",
"zzncO++,=,++OcnczzncO++,=,++OcnlzlncO++,=,++OcitllncO++,=,++OcnilincO++,=,++OcnlllncO++,=,++OcnzgrncO++,=,++OcntttncO++,=,++Ocnl",
"zcczOO+=+=+OOlzczclzOO+=+=+OOlilzclzOO+=+=+OOl*rillzOO+=+=+OOliiiiizOO+=+=+OOliiliriOO+=+=+OOliliiizOO+=+=+OOliitttzOO+=+=+OOlii",
"zcczr+=rrr=+,izczczir+=rrr=+,illcckzr+=rrr=+,i33illzr+=rrr=+,iirtttzr+=rrr=+,irifr2t,+=rrr=+,iillilzr+=rrr=+,iiriitzr+=rrr=+,iii",
"izclilcccnclirczzzztiicccncliricccczzcZcciiiir3rtilzzcnZZZclirliizzzzccccncliroila3lzccccncliriiillzzZSSSZclirliirizzccccnclirti",
"3ilr3izlckiiukzzzzt;9qpzzzllittllllcllcli,==rtitttliicccnnncczzzzNccnkNcnliilr;ilgilliiglllvvliiiticznCCCnnnNnNltrrttttttr,;;,33",
",et3tlziclrtukjpt9:;;;zlllllliiiclkcgilt3=O=rilittiiilccnckzzzzizzccnnnclir1ecliirilisrri;22i5atitelidzcnnnczllitrrtliliir;*****",
"@,,tilllkipclllit;;;;;piitizlzzliilllit3O+O=3lllittililcnclzlllltlzcnnnztt3#;4cfrrrilr;ra22raiar<rrrtriliil2iitrtliiiigit3**==@@",
"@,illkklllllillt3;;;:9rrtrtilzlllilrci3OOO=,tilllliiiilccczzlzzliillcnnzltr3;;tililzzlipliiil3333333rrrriiittt,3trilittt2,;;;;;;",
",tzzrnlzir@rclt9;;@7rr;2sirlilg;rilnir3@<#@<liczlfirailzcnzzzzzliizzzcccliiiiittilNzcllilclrrr2r3r22,,rzliiir,,3riiitttr3;;;r;<2",
"3iczccll;;arst3;;@@:7r;r;#lvlririiclr2<#<;@a2rizirirtiiliczzllclliiclzcczlizcclttllcclilirirr;;ti;rr;,tiiir3*,,rrreiirrrr;;ri2;;",
"ilcnNncisilr;@<@a<;2@<@s;#l@r22;rili@o%##rct3;3tittr3tiilzzzllnllrrllzccclizclltt3rinliiitt;333rr;rr;rrttr333r3,3reei;,rr;rr;;<@",
";iclliiigllri1<<var;ra;#r@r<<<rrrliri<##;lci,**,tdrirriiilzzltccirtlzzcclliillitlt3riiillir;rrrr;rraia,,,33trei33rrrr@;ir4rr;<<@",
"g@zllrrililgf2%rsir<sariccg41**illi;r2;;3rct,**,tirliriiilzzriilliilllzzliittiilli,rrrtlir;;2rrrrassia3,,,riilrr,r3i;%2r2;r4;2;;",
"1iiiisfillllir@rliirrrrlccg5,3alclir3,*3ttiti,*,rrrtirtililzziiiliizlilliiitrticcltr,=3rit<;rrrriireisr;;3iiitt3,aar;;rr;;rrs;;r",
"@333333rr3333;$=3,33233rr33,,333333,,,,,t33,,,,,,,,3,,,3333rrr333>3r333333,,,3,3wr3,,,,,33=;;,2,,,,33,,,,,,,3,,,,2,23,,,,,,,,;;,",
"#$+$==$=,$+$$X.X==$$$=,,,$$$$==$===$+#$,==$+$$$+$++$+$$$$$$=,,=$$$=,====$=$$$=+$,,=$$++$$+Xo++$$$$$$$$+$+$$$+$$+$$$+$+$=$ooo#o+$",
"lvzczccccvhhliilzzzcccccczzczccccczlllzczlczlzcklzzllzczlzzccczzzccccczcccczzczzcczzzllzzhllzzzzbzzzzzzzzzzzzzcczczzzzzzllllilll",
"ailtillciirrri;2irlccitilliiillllfitttiiiiiiriilitr33tiirttilliiiillliilccltttlllirittrlir;rrtiiiiilllttticlttzllzlilii3rtr<#@;r",
"iiiiilcllisrllaalicccitilciillllliittttiiiittrllitrrrriitrillilliiclliizclliiilliregiirtiirrrtliillllittiiilrtizzzzlplltiir;<@;r",
"iiiliicilccillillccnczllzlilzzlclitttrtiiilitillltir33rlttllrllllllcclilcllltltileilit3tliiariltiiiiittiiiittttizczzllliiii2@122",
"iilillil2rcii;izlccnncznzlillllllltrrrrtiiliiiczliltr333ttcliilitlzcczllciittiliirtiit3tiiiiiiilltrrr33rtttiiittlcczzziliilr;;;r",
"rliiivcll1ia4tillcnccnitlliclzziziilittrtillitptillitt,,,3tttiiiiiiizcllllt,rttirrtili33trtillltr33rtttttiilzzttizczzllliiirrr;r",
"ssrr3clzzig2riviicccncliiiillllllllliirtriigirrillcitr,,;,,3rrrtr3rttiiiit,**3ttttiiii3,3ttttrr3,,,rczzllllzzclitlczzlzliiirrr;r",
"rrriicccliiriliticnccnclitilililllciilit3rlrrriczlcltt,,,,;;;;,,,3tctttrr3,,3ticliiiti3=,,,,,,,,,,,tcnzzlllzzczitizziizliirli;ri",
"2raicnclllgiillttlcccncclittrtltiilpllcirrrrttlzllziltt,;,,,***,,tilittr,*,,tllzliiiit3,=+;;,rttttrrlnczzzklzczitclzizzztrilirrt",
"rillcclllclfiillriznncccliltrttttizclcnprr33tilzizilltr***rr,,,3rlllllzr3rrrtlizzlitr,=+++=,riiilltticcckcclzczit3tilzlitiiiirii",
"illlczllllliilcctilncnczlilttttiilccccpitr3rillzlllittr,**3zt33rrtzlzlittttttilcczltr++O+=,3tilcczitrizclzzzzklt3,3tilltttpiitti",
"iilllcllzllllcccitlccncliltttliiilclzltrtrrricllzlirrtt3**;rlittttiliittillllilzccltrr3O+,3tillzcclt*rccczzzzltr,*,tlltr3titiiri",
"illllllzllllllncitinnnclittllllliiilirtttr3rlcsiirrttllt,;*3ilczittiir3rliiillilczi,=,33rtrttillzlltrrilllllit*33,*rl33*3irrr;ri",
"@cpiiiililrllgcllticckckittilkknliliitirti33tilziiliicli3,,,rilizllllitrttirttttllr**+3tiiilllzzllltrliltttttr,rt3*,rr2r3gr;i;rl",
";2iiirtli3tlllzlziticlcnttilkcnczzzlittiti33,3lzlnllrllitrrrrttilccllltrrttrttt3ilr=+,ttittlllllliiitllkkittrrrrtr,,r;;tiiitl3;i",
"i;t@lrilr@ltcilclctttciitilccccnczznnlitt3,;,3tliilzillttttttttriiillliiiiiiiilillt3rttt,rrlcziiitppillccliilkkllt,;333rr;r;3,1r",
";;;riirlirciiicclilttitriclNlccnncknccnt3,**,3rrtrilizitiiiiiitttiiliristrrirtiilllltrt:;riczzliititlllllpllilccztr;rrrr;rr11<$#",
"@@<<iriiiiil4kcccllctr33ttillcccccccncti3;*;3r33rtiiiciilliliitrrtiiirirtrrtttrrtzczlr33rttiillitritilllllltilcnzt;;2rrrra3,1<<1",
"o@ro;rr;ilirlrlcccllt3,3tfitllczcnciicrr3,;3irlltitillilllczilttrtiiiiiritrtitrrtzncltr6rtilllilirrrllillllttlzNlr<;rrrrisr3,<<$",
"##@%1#23ttilirllitrtr3,3titizlclcnctilrtr33tislttiiilliilcclltiittiiiliriirttrrtlcccltrrrtlzczzlllirllllllllilczl2<;;rarrirr3,$$",
";##<##r#ir;li6iii3rrrtr3*rincrccccnl2rlttiririittlliclllzclliilllllllzzlllt3rrttllzzzltrrtllzllliilitlklllkllilclr<;rriiatr3331$",
"@#%####o33rliglliittilirrircnrzcckni;rt3r3ririlydlitzccziiiilizirtttlllzczltttillllllllrrrilcllzzlllilkcllllliilzr;riiiigrttrr3,",
",@@@##@#;lilrrtltiiizcntrzltllcnccct&r3,3,rilliliiiizzzcitttillirrrrrrlzzlllllllltrtilllllllzzcccczlillklllplliitr;rrlciilciitr3",
"33i;@<;<a;lll;rtiirllzcttttiiiiiiit333,3,rlllilliiilczlitttittttirttiiliillllllitr3rtiiilllcccczllzzlzlkkclilkzitrrrrlliicciirri",
"3rltr;ri;#1riiifiliilclt3,rictr333,,,,,33rtlitllitilzlllllzzitt3tttillitttiittttr333rtrrrrllzzlipslllplccclillcct3iarlltilllirrr",
"rrii;;lir<;@railttrrrci3,;,rr,r3333r33,3trtt3rciiillicilllcczit,3illzzir3rrrrrt7::;;rrrrrrlliiliietillllllplllcctrriilillpillirr",
"3rtl<;cit;2<riiirr;giir*;**,33r3rtttttttiitttilzillliittclllclttillzzzir3,,33ryy7::;4;;illli3rtiretiilclllplllNlrrrilllccliilltr",
"riirrillir42iiitrrirlt3***,3ttttllllciiilliitilzillzzzttilciicznnllllii3**,r;riy87;@#<tiillilrttrriiilllllilllclrrrtizcllzci;1rr",
"iiiiirlllir3ilitrtlrr3,,,33tyilczzzzliiizliititrtilllzi3tcliilczltttiti,*@&trriyrr;@<;iillplcrr222rtrillllllllllrrrtpcclzzzci;1r",
"ilillllliirillit,ttr,;*33tlllczzzzczliilzlillit*3tiilltrrcliiiiirrrtiit;@+&rrrry0r21@2iilillcrr<;r;13rllilllzclrriitizlzcllllr;r",
"333333333,,,,3,,3,,,;*,,,333rrr33rrr33rrr333rr,,*,3333,,,333,3333,,,3,,;=;;,,,>3,;;=;,333rrwr23;;;%@,;3333333r3,36;,,rrrw33,33,,",
"==$$$==,=$$$$$$=$+#oooo+++$=$$==,,,===,,,,=,,,=$$$$$+$$+$$$$$,====$$$$$+##+=$$$$@+oo+$$$=,,,,$++oXooXo++$==$=,=$+$$+o,,,,--$$==+",
"czcczccccccccccczllplllllllzzzcccccczccccccccccccczzzzzlzzzccccNczzzczzllllzzzzlllpplzzzccccczlllllhhglllzzccczzlzBzcccccccvvzvl",
"lltlllllkllllcllit,,rtr33,3ticillpiiizczlzcczcsiilllliiittllzlllliitrtr**tliiiiir**,3iilllcklirr;;;21<rrrtilccit,tlilzczcnnirifr",
"cclzrnlzzzllzlllitrtiit33rrttillcczzzccczlr<rti;lccclcupriclcciclitr,3**lir;ilcir**,rtlniiillzif,****;rlNczcllzt,rilcllccccczlil",
"clczcclllzzilrritttlccitttttillcclcllcccci2rclziclzclccpiicccnlcclt3;,*rriirirllr*,rtiltitillztr3,****3tllllclitrrlillzlizccliil",
"izcnNnciflclirrrriillzliiillccllilcitcclirelccctllccccciilnclNNcclt3,*rrrrrlrrtti*3inclitrtttttttrr33,,3tlllnlit3tliilclizcllill",
"ilclliiizcnl;*rrllllccnzzzlnnnllczccllliriiicccrltcccclitiiiicczlt3r3r;rrsitlrt3,,inccltrrtttrrdriiii3;*,rrtcctttlziiittttiittli",
"iizllrriznNr@*irlcccclcnnztnncilnccNnnlitrilclrsczcccccccitinliittrir4ilririrltrriznnzitrrrltr3trliei3;*;,rriiirillittttiilcllli",
"iliiisfizni@ri;rcccccccnnnlllitinnNcNVciereccrllzccccccccltrrrrt3rt;irilllitiit3ilnlllitt;rllt33rtiit3,**,rtiiiiitittiiiiiillzcl",
"liliiiiccci;riricccllccnnnnnl3,tllccnne6ir3ll3iiclcccccccctrrtizrrr22rllrllriirrllzzllitirrlltrr,3ti3,,,,*rlitiettttttliliiitlNz",
"lirillilnci;3riiinnlccccnnNnNirttiilclrir;rrririccccccccczetttintt4;sttttliliitttlzzlzlrirrtittrrr3,,,,33*ttrrrtiilliiilliilricz",
"iiilillccnr;33rlilclccccnnNccliclliiitttt;i;rgllccccccccciicliiiitiaitrriilltttiiznnnziirraeltttit3,*,rirritr3illllliilcziiliill",
"iiltillclnl;;66rrtllclzcnnnclllnccnctrittrliiilzcczcczcccclliicliiiiritiitilrrtllzNcczititili33tlt,,,3rtticltrttiiliiicclittilli",
"iiiiilclznl1rrr63iilcllccnccllcclllcliirttrttizcczcccccccccziicitlliilizlttt33izczzcnlittilll3rtit,rlrtrillitiittiiiitilittttlir",
"iiiliicizct@rlr;;rillcccczczlcciiilctrrrrrrtrizzczczzczMccclilitllllllilit3r*3izlzzzcclitilzltttirrritttllritliiiiititrtttttrttt",
"iilillil5l;@rii;;;tllcnnlililllitlllr4lgrrrttizzzczczccclcilccllccclclict3,**ritzciilczlttzccititrrtltticliititlzzlitrr3rttttrir",
"rliiivcllzrr3gl;rlrcilncllcitlczr;ilirilitrrtszzlzlcclcltrrlcccllNclcltit:;*,rlltzttizlit3illrrrt3itttilcltitiilzzzitrttttillirr",
"ssrr3clzcAcs;riilnnrttlzzczttlzclr;rlirtiitttizzclzzzzci3,*izccccccclllli:**3tzcltitttitt33iiitrtliltrttllltrilzczirittiicllllii",
"rrriiccccVnrrilricCc;rizcclrriccirrsllrriitrrizzzzzlzli3**,tlzllcclccliit:*3tizNcctr,3ittlitlclliililirtiltrrilliitttrtticzilcli",
"iraicnclzncrticiilcciriilli3rizcr@1riliiiirrtilllczcclir,*,tlzlclclclctt3;;rizcczzct33tttliiizllziililtttitttilitiilitrilzzllzli",
"rillccllzncziitcliilzitttt3rrilc;@rriiiittirtliillzzzllt3;3tizcclczrci33,;3tlczzccci3trrrziiizizciilllitiittilttillllttilzcllccl",
"illlczllzcczltlnliilzlir,,,,3tlz;2ciritirrittttilllllcltr:3tillliiicit3,333icllclcirr63r3lliiilllllllllitlrtzltrtiiittiilliiilzl",
"iilllcllzczlillctilzilcr**,;,3tcr3iiiiiiriiittillclllli;0rrriiiiit6;3r,333tplcclcclccltttlzlittlllllllllt3rtttilllllliiillzlllli",
"illiillzzzliirii3iilzzzr****;,9cliiiillsiilittiiiiiiiii233rtiiiiit;;rr3,,3tlcczrnlzcnzittizlitilllllllllir,33tllllilliiiilllilii",
"iiiiiiiillkklitllicczirr3,;;,,:trtiliiirirrrreiittttttr3,,,3tiiitr33rit1$@;ilczcclltzzitrrliittccllzzzzzzrrriillcccciilclitrttri",
"iititpplllccliilktillt;3r3,,333rreiiiiiirsr;reei;;rr;rr;;<@,ttttr333ri21<@;rlcnNnciflzitrraiittizzzccccclt,tlcitcclirelccgrttttt",
"itiitiilllllpttlltictr;rrrr33tatarsrillieirrrrrr@;ir4rr;<<@;ri;r363rrr;;;@o3tllliiizcnl;;rrlllttznNnnccclttczccllliriiicciirrrrt",
"tiitriiillllltriltict;;2rrrr3ssiarrrtililiiir3i;%2r2;r4;2;;;l<3@663ri;;;;<@4tillrriznNr@;irlccitzcnnnncciilnccNnnlitrilcl;rrttrt",
"tiiirriiiitttrrtitilr<;rrrrr3reisr;iillillssaar;;rr;;rrs;;rei;r<r3rrirr<#<21tiiisfizni@ri;rccclizcnnnnnziilnnNcNVciereccrrrrllrr",
"illirrttiitrr3rlttrt2<;;rarttriitrrizlliliiisrsirrrrrrrr;;rrir@ilir4ii2@@22@iliiiiccci;ririccczlzcnnnnziticCnccnne6ir3ll3a2ilrrg",
"lllt333rpklllkllrttt,,;rriiilsiitriillrlliilr3itrili;;;4;rirrr;i;@rlzt@;7r32irillilnci;3riiinnlccccnnNit3icnnccclrir;rrrisriitil",
"333,*,3639r33333,,t,,,,33334rr3333333333933r33333363,;;@;,,,33,,;@,333;;;,,;233333rrt,;,,,333r3rrrrtt3,,,rr3rt3,333,;3;,43,,333,",
"$$*=$+$$==-===$$$$,*oo++=,$=,,=======,=,=,==,=$==$$$$+X.Xo+$$$++$o+$$$+ooo+$$=$$==,=,=oo@@++$==,=,,,,$#+$,,,,,,$$$$o+=$$$$++$$$+",
"ccccccccccBBccczcccBzzzzccccccccccccBccccccccccBccccczzvlzzzbzzzzzcczvzczvzcccccccccncvzzzxzccccccccczzzcccccccccczzcczzzczzzccc",
"ppipseiiplccci3lllciriarlltilzzcczllilzzzczzczzllllir,2@1222riirrriirriir;riiiliicizct@rlr;;rillcczt,,*3tiiillitrrrrllrrrlciitti",
"irrietillllllrrrilcr;iiililllkccczzlllzlzczzcczzzllir3r;;;r;rritarrr;;r2r2iiilillil5l;@rii;;;tzlczir*3ttlitilllr4lgrrli2acciirri",
"rr6retiilclit,*3tllrrtilllcczlnnczzllzzzzclzcczzczlittrrr;reiitir;rrr;2;2ilrliiivcllzrr3gl;rlrcizltrrtczczzi;ilirilitiirszzci;1r",
"r6;rriiiliii3**;rilrreiizcllkznncclllczzcizccczzczittirrr;riittrr;;rss2;iclssrr3clzcAcs;riilnnrrttticczcnccir;rlirtiiirrillllr;r",
"rr222rtri*riltrr3trrrlipcclzzcnnnnzzzzzzcilcczzczlitirltrrititillr;;rraaiiirrriiccccVnr@ilricCc;,rczccccnczirrsllrriiirrilltiltr",
"rr<;r;13rrtilittittriislzlzccccnnnzcczlzcllcczzzliziiiltrrtiitilzi;4rrriiir2raicnclzncrrlciilccr*3icNclccczt@1riliiiirrrtkkiillr",
"ai;;;%@rrililitiiitip;rlzzzNcccnncnccclzcllzzzzliiiliiitriitiiilclrrrrr;ilrrillccllznczi;tclrit3*,rzncccnczr@rriiiittiiclccfaisr",
"rrr,,;;<;rrilliit3,ryiilzccccccnnncczzzzkzlzzzlitillliitttiiillllirrtir;3trilllczllzcczltinliit*;,rizlcNnczt2ciritirriiccnnirifr",
";rr333,1<rrrtiit*3,rikilzczcccccccczzzzzlllillitlllllliiiilllllliiiiir;;rrriilllcllzczlilict;lr,,irtllzzccziilclipilclclllllizzl",
"lttrrrrttttiiiit3ttzlzllcllcccnczzzlNzcclilililiilzzzzzzlizzzzziclii;il@rliillllzlzzzliir;i3;i66,*,tiilzzzzzzlliiiiiilcclillllzz",
"lliittttiiiiilitrtliicliilzzccnczlillcclllirillilzzzczczlzzccczlccl<l4irrriirirlzzzccczitirilc603*<<rtpizzzzzliiiiiiilitilipllkc",
"lzlitr3rilitllllr3trrlllilzzccczlillrinliiittiiillzzcccliilzzzzNccl22;rrrrrrlrrilzcnnncliilili033<@22tlizzzzzziiitpplttttlillkkl",
"zzldriiiiiiillrtr3rrtlzlrilzccclliliiiillllittiiilzzcccttiiliicczlrc;sr;rrsitlriizcnnccciilrzt@r3;s5riillzzzzzliitiiitrttpllllcc",
"cNiirlieiiiillrr3rriillliilzncccllliiirlllirttirilzccccicczlinlzli3iir4ilririrlsrcncnnzcirirlnrtr2;rizzlllpzzziitrittrtrtlliilcn",
"cclertiitilitiiirttiizliillzcncilccliiiliritttiilzzccccizcczilllll;t;irilllitiir@zznnnzlri;rllar*rrrtzzzlpczziiiirrrtiiilllllNcN",
"czli;lliiilitilliiieiclllzzcnczitlNztiiiiriittiilzzcccczzczcizclzilr22rllrllriii3lccnczlrirrli;r*;s33zzcnillzlittr,tilllllllzzcc",
"zzlirilliiiiilllliitlcllzzcnnczlriczlitiiiirttiilcccccclllzelllcnrf4;srtttliliclllznmnclrirrtis;*3ir*tlzcliilttr336tilklllklzzcc",
"zjdtiiilliriiiclitillllzccncnczliilliitiiii2rtiilzccccclriiicillciliaiti3iillct@llznnnclirraeli;,3tr3tzllctttr*lir3tplkclllllzcn",
"llitlirilirtticliuiillzzccccczztllliriiiilirrtilzzczcczzticlllzcziziiriciililccznlzNcczliitiliir,,rrrttlllitttlplttiillklllplzcn",
"tttrt333ttr3ttttttttiiiiiiliittittt3wstttttttrtiiiilllllttilitllllltttttitttttliiliilltttrtttttt,,33rr3rttt33tttrrrttttuultttull",
"===,=======,=======,=======,=======,=======,=======,=======,=======,=======,=======,=======,=======,=======,=======,=======,====",
",rilir,O,rilir,O,rilir,O,rilir,O,rilir,O,rilir,O,rilir,O,rilir,O,rilir,O,rilir,O,rilir,O,rilir,O,rilir,O,rilir,O,rilir,O,rilit3O",
"riiliir,riiliir,riiliir,riiliir,riiliir,riiliir,riiliir,riiliir,riiliir,riiliir,riiliir,riiliir,riiliir,riiliir,riiliir,riiliit,",
"tltttltrtltttltrtltttltrtltttltrtltttltrtltttltrtltttltrtltttltrtltttltrtltttltrtltttltrtltttltrtltttltrtltttltrtltttltrtltttltr",
"rlirilr,rlirilr,rlirilr,rlirilr,rlirilr,rlirilr,rlirilr,rlirilr,rlirilr,rlirilr,rlirilr,rlirilr,rlirilr,rlirilr,rlirilr,rlirilr,",
"t=,l,=i,t=,l,=i,t=,l,=i,t=,l,=i,t=,l,=i,t=,l,=i,t=,l,=i,t=,l,=i,t=,l,=i,t=,l,=i,t=,l,=i,t=,l,=i,t=,l,=i,t=,l,=i,t=,l,=i,t=,l,=i,",
"lil,lilrlil,lilrlil,lilrlil,lilrlil,lilrlil,lilrlil,lilrlil,lilrlil,lilrlil,lilrlil,lilrlil,lilrlil,lilrlil,lilrlil,lilrlil,lilr",
",=tit=,=,=tit=,=,=tit=,=,=tit=,=,=tit=,=,=tit=,=,=tit=,=,=tit=,=,=tit=,=,=tit=,=,=tit=,=,=tit=,=,=tit=,=,=tit=,=,=tit=,=,=tit=,=",
"+=333=OO+=333=OO+=333=OO+=333=OO+=333=OO+=333=OO+=333=OO+=333=OO+=333=OO+=333=OO+=333=OO+=333=OO+=333=OO+=333=OO+=333=OO+=333=O@"
};
