/* XPM */
static char *_9e5f94d3c2744b4daaeee9ee914702b7iDG2cpM5GTqIWB0[] = {
/* columns rows colors chars-per-pixel */
"128 128 70 1 ",
"  c black",
". c #070707",
"X c #0B0B0B",
"o c #170F07",
"O c #1F170B",
"+ c #131313",
"@ c #1B1B1B",
"# c #13230B",
"$ c #2B230F",
"% c #332B13",
"& c #3F2F17",
"* c #232323",
"= c #272727",
"- c #2F2F2F",
"; c #373F27",
": c #373737",
"> c gray23",
", c #470000",
"< c #530707",
"1 c #670000",
"2 c #43331B",
"3 c #4B371B",
"4 c #4F3B23",
"5 c #533F2F",
"6 c #1F4317",
"7 c #3F472B",
"8 c #474F33",
"9 c #574333",
"0 c #5F4B37",
"q c #53573B",
"w c #67533F",
"e c #434343",
"r c gray28",
"t c #4B4B4B",
"y c gray31",
"u c gray34",
"i c #5B5B5B",
"p c #6F5743",
"a c #775F4B",
"s c #5B6347",
"d c #676B4F",
"f c #6F7357",
"g c gray39",
"h c gray42",
"j c #6F6F6F",
"k c #7B7F63",
"l c #777777",
"z c gray50",
"x c #836B4B",
"c c #836B57",
"v c #8B735B",
"b c #937B63",
"n c #9B7F6B",
"m c #9F876F",
"M c #A78F77",
"N c #AF977F",
"B c #838383",
"V c #8B8B8B",
"C c #939393",
"Z c #979797",
"A c #9F9F9F",
"S c #B79F87",
"D c #BFA78F",
"F c #A7A7A7",
"G c gray67",
"H c gray70",
"J c #B7B7B7",
"K c gray75",
"L c gray78",
"P c LightGray",
/* pixels */
"@@@@@@@@@@@@@@@@@@@@@@@@@@@@@@@@@@@@@@@@@@@@@@@@@@@@@@@@@@@@@@@@@@@@@@@@@@@@@@@@@@@@@@@@@@@@@@@@@@@@@@@@@@@@@@@@@@@@@@@@@@@@@@@@",
"8fdffffkmmkmmmmmmzfkkkkmmkkmmmkffllfdkmkfdfkffffkkffkcvmmmmmM8 @8fdffffkmmkmmmmmmzfkkkkmmkkmmmkffllfdkmkfdfkffffkkffkcvmmmmmM8  ",
"8fssssdddfssccffkfssffffaqsffssq7q7%%qss7O%77sqq777%7q7sfffkk8 @8fssssdddfssccffkfssffffaqsffssq7q7%%qss7O%77sqq777%7q7sfffkk8  ",
"8fssssdddfsafcfcffaqsfkksscfsakf7%%%7eqq7%877qqu7%q%7sqq7skfs8 @8fssssdddfsafcfcffaqsfkksscfsakf7%%%7eqq7%877qqu7%q%7sqq7skfs8  ",
"8ffsscddfffsfccfcfsffffkfsfffffs7*7s7:7qq77777rqqqs7%qq78fkff8 @8ffsscddfffsfccfcfsffffkfsfffffs7*7s7:7qq77777rqqqs7%qq78fkff8  ",
"8ksssdddfk7*skffccffqqfffffkdsff7%7qq77qq777qq7%77ss77qqsfsss8 @8ksssdddfk7*skffccffqqfffffkdsff7%7qq77qq777qq7%77ss77qqsfsss8  ",
"9fssfdkdcfOorGksfkkfwsfccccfffssq-7-7%%777e7q77777ss77778fsqq; @9fssfdkdcfOorGksfkkfwsfccccfffssq-7-7%%777e7q77777ss77778fsqq;  ",
"8fssddfdkfOokSfqfkfsqsfkffffkf77sq-%-%777%7qqqqe-qs77us:7sss8; @8fssddfdkfOokSfqfkfsqsfkffffkf77sq-%-%777%7qqqqe-qs77us:7sss8; X",
"8ssqddsfks7qkncackq%%qffffsafs%7sfq%-rr7%%7777qr7qq8qsq7qsq%75 @8ssqddsfks7qkncackq%%qffffsafs%7sfq%-rr7%%7777qr7qq8qsq7qsq%75 +",
"8fsssddfdfssfcfccc%+qasffssqsq77qqqee77%%7ssq7qq77qqq87qs7%7s8 @8fsssddfdfssfcfccc%+qasffssqsq77qqqee77%%7ssq7qq77qqq87qs7%7s8 o",
"8ffdddfddfffffffff7+qksssddsfq7;7qqq777:%qaw77qq77qqq77ssr77q8 @8ffdddfddfffffffff7+qksssddsfq7;7qqq777:%qaw77qq77qqq77ssr77q8 o",
"8ffddddfdfffcasffff7qfsssffdfq%=7sq%77777sfs5ss8777qqqqsq7=O78 @8ffddddfdfffcasffff7qfsssffdfq%=7sq%77777sfs5ss8777qqqqsq7=O78 +",
"8fffddssddfffffkfffqwsqsssssss7%78;%7q877qssssqsfqq88qqqq77O%8 @8fffddssddfffddfdddqssqsssssss7-78;-7q877qssssqsfqq88qqqq77O%8 *",
"8ffdfsddddffffffkkq%ssqsssss8qs8777%%7qqqqqssqqffqq77q8q7qf-%5 @8ffdfsddddfffdddffq-ssqsssss8qs8777--7qqqqqssqqdfqq77q8q7qf-%5 +",
"8fffdddsddffffffcfqqsafffsfaqqss77r-%-;7qsqss7qsssq77qqqqqq;78 @8fffdddsddfffdddkdqqsddddsddqqss777=-=;7qsqss7qsssq77qqqqqq;78 X",
"8fffddssdfdffffcs78sffffssffyeqr777-%7;7qq8qq7qwqssq7rssqqqqs8 @8fffddssdfdffddks78sddddssdd87q7777=-7;7qq8qq7qsqssq7rssqqqqs8  ",
"8fffffddddddfffaq5qsfwsssfkkq7qy7:7%%r777888q8ssqqss8qsfassqs8 @8fffffddddddfdddq8qsdssssdffq7q87-7--7777888q8ssqqss8qsfassqs8 X",
"8ffffdddfdfffcs5qsssswwssfegBZFLNmNOO57777777qssq8ssqqkf7qdss; @8ffffdddfdfffks8qssssssss7@qs7=77qq@O87777777qssq8ssqqkf7qdss; o",
"8fffffddfdfffffq7qssswddsgAncc+OuScPgq78qqq;2qqqssssqfN8 Oqks; @8fffffddfdfffddq7qq;sss7O;777ss7q777-O78qqqqqqqqssssqfN8 Oqks; *",
"5fffdfddddffaffaqwsdf-VgrgNkZ+++ g+rnFZgussq7qqqq8ssskms +qkd; @5fffdfddddffadddq-7kk7*++7qskkkskkss7++s7kk7;qqqq8ssskms +qkd; *",
"8fffdfdafdffsfffssdfVG%O+lgV7+-=Oegr:cVeZfsqqqqsqqssffkfqqjkf; @8fffdfdafdffsdddsO;qdb=d@-8q77=-7ss8=@k=bds;Oqqsqqssffkfqqjkf; +",
"8ffffddfddfffffaaagBgu7fe+ .e-cBz7+O+ zew:ls5qwqwsssfffffffff8 @8ffffddfddfffdddss+;qM-N7-OO=sdqq=@O=7N-Mq;+8qsqwsssfffffffff8 @",
"8ffffffdfffffffd0*O7C@*=*++*+s* 7***Oo7u*:*05wawwssffffffdfcd8 @8ffffffdfffffddds7+O;7dMdq7qmMNNMbs7qkMk7;O+7sdswssffffffdfcd8 =",
"8fffffffffffffdw7*+ ygi*+*#;*y@+O*7--*+*kyg++Ofssssdfddfdffdf5 @8ffffffffffffddss  +O+==7==7778q777=-7--+O+  ssssssdfddfdffdf5 *",
"8afxffdffafxffsq-#++.l++-*%e*ye*y%g*g7+ os++#*-ssfsdddddffkfs; @8afxffdffafxfdss7   +++OO=7qqkMkkqq7=OO+++   7sssfsdddddffkfs; *",
"8ffffffffffffdw8e#+@+H*@*-eqs jynqjgseO++e o+O=qdfffddffffdfs5 @8ffffffffffffdds++++@OO*qsdkks77sbkkqq*OO@++++sqdfffddffffdfs5 s",
"8fffssffffffssq*y=*-eVO%7gffVCkMNNMmfq7%-z.+++%9dffffffffffaf8 @8fffssfffdddddss O+=;qkq=====qkks==--=qkq;*+O sqdffffffffffaf8 ;",
"5ffffffsafffff**-sgu:O*-ygmSSSHHHDDDNcsqOke+#**wdffffffffffff; @5ffffffsafdfdds7 OO==777qqmM7bNNb7Mmqq777==OO 7sdffffffffffff; @",
"5ffffafsaffffa*sqqe-=**esnnDDDDNDDSMmfa7=o-y-e-wdfdddffffffff8 @5ffffafsafddddsO+OOO=sdmMNmNqkmmdqNDNNmkq=OO@+Osdfdddffffffff8 q",
";sffssffssffss*-:O+#-7-glnNDDDNMSMNMMbs7--**%reqdfdsddfffffff8 @;sffssffssddddd+@O+-kq8777-=O7q77O=7777qqd-+O@+qdfdsddfffffff8 s",
"5ffssafaaffssw>*ye#++-wDDDDDNnnSNnSMDDKBre++***qdfssdffffffff8 @5ffssafaaffdddd+O@-8=++++++  *q8*  ++++++=8=@O+qdfssdffffffff8 f",
"8ffssffafffssw%*#+****OO5nDMqaabnwcMNnaq*%*;+O-qdfssddfffffff8 @8ffssffafffddss+-O77+ +@-@+ +qMkq+ +@-@+ +77O-Oqdfssddfffffff8 s",
"5affafffaaffas3+*y***+%-* O-OOese rq%o*-+=%7t-*qdfssdffffafcf8 @5affafffaafddss+++@+=O=+  ++7kNNk7++  +*@=+O+++qdfssdffffafcf8 f",
";afsffsssafsfs7+--++#**+=*+. jJKP- +++.#++%*+=:wdffdfffffffff8 @;afsffsssafdddsXO;-=+==O +OOskMNksOO+ @=-+=-;OXsdffdfffffffff8 s",
"8sssfffsfsssfs;+*++##+q-ge=+*VDDKg+#*rO%O#++++%qdffffffffffff5 @8sssfffsfssddssOO8dq7+O-7@ =kbMNkd= @7-O+7qd8O=qdffffffffffff5 q",
";ssfssfssssfsq;++*-**+gfss7fZDNDNGC-eyqj%O=**;+qdfsfffsffffff8 @;ssfssfssssfsss;+7bNbd7O+O77qbMNbs77O+@7dkMm7+;qdfsfffsffffff8 q",
"8ssssfasfsssss8#*-+@*+-ssVNqo.2:% *nmgss;+%+*-*8sfffffdfddfaa8 @8ssssfasfssssss7O7MmNNbkkqsqqbMNb7qsqdfbNNNM7@78sfffffdfddfaa8 s",
"5ssssafsassssw7+*+-##++o nmfgz*+yfunk+O#++**o*+8ssffddffdffsa5 @5ssssafsasssssss+O7kkmmMmk8dbmNMmbdqkbMmmdd7O+s8ssffddffdffsa5 r",
"5wqsssffawqsss9**+O#+++++e%27s%Ou-**-+.++++%+++9dfddsffsssfff; @5wqsssffawqsssss++O==ssdq7 =sdkMds- 7ddsq-=O+Osqdfddsffsssfff; q",
";sssssafssssssa++-7-*++++u##+*++*#O***+++#***+-fdssssfffsssaf8 @;sssssafssssssssO++O@=-=@ OO+OO-O+OO @*-=@O++;sddssssfffsssaf8 q",
";wsssaaaswssssa*-r++***+ r+++++*++++=o+++O%-eO+qddqwsfffaswsa5 @;wsssaaaswssqsss7OO+O++O++ OOO++OOO ++O++OOOO7sqddqwsfffaswsa5 q",
";sssssssqssssss+e*-#*+#++%++# .  +++*+++O+ *f+*8sfsfssfsaasaa; @;sssssssqsssqqqs7O-OO@-qqqq-OOOOO@-qqq8=@O@=Oss8sfsfssfsaasaa; q",
";sssssssqssssw8+*++;=+**+%* .X..X. **+++*Oe 7%;qssfasqqqqqsaq; @;sssssssqsssss8qsX+=Oqkkkfkkk=@=-kkkfkkkqO=+Xssqssdasqqqqqsaq; s",
";qqsssqssqqssq8%++e-*%%++*-   ..   -++++-os-+%7qwsss8sq888qqq; @;qqsssqssqqssq8qs7+=O7fq8qqsqqkqqqqqq8dk7O-+;sqqwsss8sq888qqq; d",
";qqqqqwssqqqqqq;.**++*-+O*e+ X++X +e++**+77*+;qqq888888887q7s5 @;qqqqqwssqqqqqqsssXO--7+++*-=======*+++7-=O sqqqq888888887q7s5 f",
";qqwsqsssqqwsqq8+*;#=++*+ s*e+%%+e*s#+*#O#+++;qqq88ww77777q7s= @;qqwsqsssqqwsqq8ss7+O==   ++++OO++++   -=O+;sqqqq88ww77777q7s= d",
";qqssqswsqqssqq8;**%;*=*++7fu-yy-uf7+#++#=++Xsssq7qq77%%q5&7&; @;qqssqswsqqssqq8sssX+-=    ++++++++    *-+ qqqqqq7qq77%%q5&7&; s",
";qqsqqsqsqqsqqwq7+O+*+#*X%gPLDnnDLPg-**++**-=7ws7;;sq7%%%%%&&= @;qqsqqsqsqqsqqsqsss7XOq ++++++++++++++ qO ;qqqss7;;sq7%%%%%&&= 7",
";sssqsdssfsssqswq7=+*++*+-=82o  O5s+**O%*o+*-;;rr;;7%*=7%%=%%= @;sssqsdssfsssqssssss+ qO++++*-=--*++++@q +qqq;;7r;;7%*=7%%=%%= s",
";qqsssssqsssssfsww:**#+*@*-+y+ +e-+=-#++7+@=;77eq;%%%*OO=%%*%= @;qqsssssqsssssdssssss Oq OO-77qq77=OO qO ;88;777q;%%%*OO=%%*%= q",
";sqqqsssssssssssdff+++-=#+%+**++*#.*+-=O++*;;7777;%-22OO%7-%7* @;sqqqsssssssssssddsss+ 7++@7sddddq7@++7 +888;7777;%-22OO%7-%7* ;",
";sqssssssqssassssfw:+++++%-+*+*+*++*%r7+**=%777qe;;-22%OO=%77+ @;sqssssssqssassssdsss7 +=+*7qdkkdq7*+-O 7877777qe;;-22%OO=%77+ ;",
"8ssssssssqsfsasssssq;*@-*7=**+ +%++O*r7#-;;%777q77;%;2%%=OO%%O @8ssssssssqsfsdssssssss7 7+@;smMkkq;@+7 O77;-777q77;%;2%%=OO%%O =",
";ssssqqssssssfffssfs8#+q:qO O*+++-*++*r;;8q;77qqq7-%27%O%**7%* @;ssssqqssssssdddssdssss O=+@;fkmk;@+*OX;77q;77qqq7-%27%O%**7%* o",
";qsqsssssqffssfdsssfq;%77O++e-e+* +*+O>7qsq77rqqq8222q%+%*O77= @;qsqsssssqffssddsssdqss7 OO++OOOO++OO ;777q777qqq8222q%+%*O77=  ",
"2ssqwqqsfssffsffssafs7;+++ Ce%++q-:=O :qsqq77qqq72227q7O%%O%7O @2ssqwqqsfssffsddssddssss7 *=+ ++ +-* ;7qsqq77qqq72227q7O%%O%7O  ",
";ssq8qqssssafsfasssssq7-+ +% o +*+O=+:7qsqqq77sw27777%*;7%O*-@ @;ssq8qqssssafsddsssssssss7 OOO-7OO+ 777qsqqq77ss27777%*;7%O*-@  ",
";sssq8qsaassasasqsssfsq;%  e-..*  @=:8qss57877qqqq877%*%%%%O%= @;sssq8qsaassasdsqsssdsqss7;;+++O++ 7-8qss87877qqqq877%*%%%%O%=  ",
";sfsqwqsfsfsssssqffssss7=-%7*+ # O:7qqqsq777;7qsq887-%%%%%%%%@ @;sfsqwqsfsfsssssqddssssss;;;;;;;;777qqqsq777;7qsq887-%%%%%%%%@ .",
"8ssqqqqqqsffsqssssffsss777%7q7%%77qdsqqqqq777qqq8877-%%%7%*-7+ @8ssqqqqqqsffsqssssddsss777-7;7--77qdsqqqqq777qqq8877-%%%7%*-7+ +",
";sqqqqqqqssaasqwssaffdq77%%8q%77%78qsqqq7777775qq7777%%7q-%%%@ @;sqqqqqqqssaasqwssaffdq77%%8q%77%78qsqqq7777775qq7777%%7q-%%%@ +",
";sqqq8wwsssffsqssaasss8%;;;77%77%75qqqqq77r7%755q%%77%77%%*O%* @;sqqq8wwsssffsqssaasss8%;;;77%77%75qqqqq77r7%755q%%77%77%%*O%* o",
";ssqq8qqssssswssssfff87%7777%77eqe7r7qsq75q777777O%q7:77%**O%* @;ssqq8qqssssswssssfff87%7777%77eqe7r7qsq75q777777O%q7:77%**O%* o",
";sqq87qqqssssssqqsfkf8%%-7777errqe77788qqsqqq7;q%#-7-%7:%-%%%= @;sqq87qqqssssssqqsfkf8%%-7777errqe77788qqsqqq7;q%#-7-%7:%-%%%= +",
";qqqq77qssqssssssafcs7*%7777qq75qr7%qqqqqssrree7%%77%%77r%%75- @;qqqq77qssqssssssafcs7*%7777qq75qr7%qqqqqssrree7%%77%%77r%%75- +",
";sssq%%5ssssssssssffs-*%%7e7777qq877qqqqqsqqqr7rq77777777%%77= @;sssq%%5ssssssssssffs-*%%7e7777qq877qqqqqsqqqr7rq77777777%%77= o",
";sssq225qsasssasssffs7*%77qqerrqq87qqqq7ssqqs7;q87qsq%%%:%7q7= @;sssq225qsasssasssffs7*%77qqerrqq87qqqq7ssqqs7;q87qsq%%%:%7q7= +",
"=sssq77qwsafssssssfkf7%7qqqquqqqqqqqqssssassdsqqqqqwq7%%O%777@ @=sssq77qwsafssssssfkf7%7qqqquqqqqqqqqssssassdsqqqqqwq7%%O%777@ +",
"=qqwsq7qqssassswssfkf7%77sfqqqqsss8qssfsdsdssdsqssqqq87*+O%7q= @=qqwsq7qqssassswssfkf7%77sfqqqqsss8qssfsdsdssdsqssqqq87*+O%7q= +",
";qqqqqqqsssaafsqsaffw7777ssqqsssssqqswqsddddsddswsssqq7%*O%77= @;qqqqqqqsssaafsqsaffw7777ssqqsssssqqswqsddddsddswsssqq7%*O%77= @",
"=wwqwr5qqwsfffsqssffq7qe7ss8qssddddssqsdddfddfddssssqqq-O=---O @=wwqwr5qqwsfffsqssffq7qe7ss8qssddddssqsdddfddfddssssqqq-O=---O *",
"=q77q58qsssssswsssff7%qqqsqsssadfffdsssssdfcfffdddssqqs7%%%7%@ @=q77q58qsssssswsssff7%qqqsqsssadfffdsssssdfcfffdddssqqs7%%%7%@ +",
"=772758qqsfssswssscs778qsssffdsdfaddssdsddfffffddfdsqqq777%75= @=772758qqsfssswssscs778qsssffdsdfaddssdsddfffffddfdsqqq777%75= +",
"*72%77qqqsssssqsssfs775qqdfssaddfddssssddffffffddfdsqqq777%7q- @*72%77qqqsssssqsssfs775qqdfssaddfddssssddffffffddfdsqqq777%7q- +",
"-77---787qssssssssss77sqwffsddfffkddsssddfkfffddffdsqq7sq%7q8= @-77---787qssssssssss77sqwffsddfffkddsssddfkfffddffdsqq7sq%7q8= @",
"-77*%7%=;7ssqsssdfs77qqrsdsdffffkkfdddasdfffffddfdddsqqsq778q; @-77*%7%=;7ssqsssdfs77qqrsdsdffffkkfdddasdfffffddfdddsqqsq778q; @",
";eq%%%#O7%qsqssqsfq%qw%7sdddcffccfffaffsdfffddsaddsssqqqq7qq8; @;eq%%%#O7%qsqssqsfq%qw%7sdddcffccfffaffsdfffddsaddsssqqqq7qq8; +",
"-777%*%%*%77qssqsfs%7uqqsdffffffffcfsddddadddssssssssswqq88qq; @-777%*%%*%77qssqsfs%7uqqsdffffffffcfsddddadddssssssssswqq88qq; *",
";%77%%%-=*7778qsffqO%waqsdfdffkcfffffddddsssssaassssqsq8qq7qs; @;%77%%%-=*7778qsffqO%waqsdfdffkcfffffddddsssssaassssqsq8qq7qs; *",
"@@@O+OXo++@+O*=;;;=oO;;;;;8888588888;;88;;;;;;;;;;;;;;==--==;*O@@@@O+OXo++@+O*=;;;=oO;;;;;8888588888;;88;;;;;;;;;;;;;;==--==;*O+",
"+***@*@+*o+o@o@*X+X+++@+*****+ooo+++oX+*+Xo@=*@oo+++oX+*+Xo@=*@X+***@*@+*o+o@o@*X+X+++@+*****+ooo+++oX+*+Xo@=*@oo+++oX+*+Xo@=*@X",
"k7fqfffkkkddkfbdqfqqddqd7t8fkdffdfvcvddvfdvddd;@*diddsssfdfddkqfk7fqfffkkkddkfbdqfqqddqd7t8fkdffdfvcvddvfdvddd;@*dsdd8d8fdfddkqf",
"d2yq7eqssyscfdfssddddssfssfffffdsqscdffsqsfqqq>+*ssdssdssdffsssfdsyq7eqssyscfdfssddddssfssfffffdsqscdffsqsfqqq>+*ssdssdssdffssss",
"d27q78qqqqqssssfssqqfsqqsdsqdffsqqssffsssq7qss>+oqqsssssdsfffsffdq7q78qqqqqssssfssqqfsqqsdsqdffsqqssffsssq7qss>+oqqsssssssfffsfs",
"s2887;7qsq8sssskss77sssqsfsqdfssqss7qksqqq8888-XXssssdsddsfffssqqq887;8qsq8sssskss77sssqsfsqdfssqss7qksqqq8888-XXssqsdqddsfffssq",
"q8t7qqqqqqqss78ffq78sds7qssqqsssqsqqqqssssq7q7-Xoqdssddsdssssdf8q8t7q77qqqqss78ffq78sds7qssqqsssqsqqqqssssq7q7-Xoqdqdddsdsqssdf8",
"pqq7sq5qqqqss77qssqqsssqqqqq8sfsssqqq7sssq7%qq;+Xqsqssdddssqssskpqq7sq7qqqqss77qssqqsssqqqqq8sfsssqqq7sssq7%qq;+Xqsqsqdddsqqssss",
"s8578qq8qsq8qqq7qsqqdsqqqqqqqqqsffsqqqsq7q8rq7$Xoqqqqdsdsqsqsqsks8578q78qsq8qqq7qsqqdsqqqqqqqqqsffsqqqsq7q8rq7$Xossqqdsdsqsqsqqs",
"88q%ssqqqsq8qssqqq5qfssqssqsqqq8scd8qqqq7qq787;o*qsqqqddsqqqqq7k88q%s878qsq8qssqqq5qfssqssqsqqq8scd8qqqq7qq787;o*qsqqqddsqqsqqqs",
"88q7qssqqqqqssssq88sfssssqssqqs7qfdsq8qqqq77q7*o;sddssssdisqqqsq88q78788qqqqssssq88sfssssqssqqs7qfdsq8qqqq77q7*o;sddqsdsdss:qqsq",
"9t8qqqssq7qqqfsq8qsssssqssfdqqsqqssqq8qqqq-7q8*X;qsddssdssssqqqs9t8q778sq7qqqfsq8qsssssqssfdqqsqqssqq8qqqq-7q8*X;qsdddddssf577rs",
"sq8sq7qsq788qfsqqqqsssqqsffsss8sssq7qqqqsq77qq;o*qdssdsqsssdqqqqsq8s778sq788qfsqqqqsssqqsffsss8sssq7qqqqsq77qq;o*qdssddqss8dqsqq",
"sq8q777ss87qssqssqqfssqqdfssqqqssq75uqqssqqqrr;X;sdqddqqqssfqqqssq8q777ss87qssqssqqfssqqdfssqqqssq75uqqssqqqrr;X;sdqddqqqssfssqs",
"ss8qq77qsq8ss7ssssssffsqsfsssss8qs5qsqq7qsq877>+2dssssqqdsfssqqsss8qq77qsq8ss7ssssssffsqsfsssss8qs5qsqq7qsq877>+2dssssqqdsfssqqs",
"dsqss5rss8qfsqqsq8sdffdssfqqssqsqq78sqq78sq8qq5+;dsdssisfsqfdsqfdsqsq77ss8qfsqqsq8sdffdssfqqssqsqq78sqq78sq8qq5+;dsdsqssfsqfdsqf",
"dssssqqs87sfs8qqqqsdddfssssssqssq777qsq77q777q5+;ssdddsddqdssqssdsssq77s87sfs8qqqqsdddfssssssqssq777qsq77q777q5+;ssdddsddqdssqss",
"ddsfsqsqqsfsssqqqsdfdsssssfffssssqqqqqqq778q8q;+;sssdsssdsdssqdsddsfs78qqsfsssqqqsdfdsssssfffssssqqqqqqq778q8q;+;sssdsssdsdssqds",
"fdsfssqssqqsssq7qsssfssssssffdqsfsqqq8qqq77q77;+;sssfsssfsssfsfsfdsfs87ssqqsssq7qsssfssssssffdqsfsqqq8qqq77q77;+;sssfsssfsssfsfs",
"dssdsssqsqqsssq8qsssssssssddddssdsqqqqqqq877%%;X;sfsssssfsfsssdsdssdqsq8sqqsssq8qsssssssssddddssdsqqqqqqq877%%;X;sfsssssfsfsssds",
"dqdfssssssssdssqsssssssdssffffssffsqqsq8qq87O%;o;qsfqssssfssssssdqdqsssqqsssdssqsssssssdssffffssffsqqsq8qq87O%;o;qsfqssssfssssss",
"dsssssssssdsdssdsdddsdsdfsdssddssdssqqdqq78qq8;X;sssssssssssss7sdsssq8588sdsdssdsdddsdsdfsdssddssdssqqdqq78qq8;X;sssssssssssss7s",
"sdsssssssssdssffsdsssssssssssdsssssdssdssqqq88;X2sssssqssssssqsssdsq742q87fdssffsdsssssqsqsssdsssssdssdssqqq88;X2sssssqssssssqss",
"qqqqqqqqqqqqqqqqqqqqqqqqqqqqsssqssssssssqq8888;X;sssssqssqssqqqrqq77;2sss7;sdssfdsssdsss7sqqsssqssssssssqq8888;X;sssssqssqssqqqr",
";;;;;;:;-;;5;;;;;;;;;;;;;;;;*;;;;;>;;;;;;;;;;;; *;2;;;:;;;>;;;;;;;;;;;:;-;;5;;;;;;;;;;;;;;;;*;;;;;>;;;;2;;;;;*; *;2;;;:;;;>;;;;;",
"O*=***$*@**+**;X+O**O********O***+******+=****%O$*=***$*@**+**; O*=***$*@**+**;X+O**O********O***+******+=****%O$*=***$*@**+**; ",
"ssiqyffffffffv5@;fhdd88dds7q8q=-7-q8qqqqsssssqsssfkfsfmfkkdd7@sdqqsdf8;77***O7s@;fhdd88dddddffkd77d8sqdrdrrq8tdq78qdfdii;>td8ssh",
"2;%%+678sddfff8@;fffd7ksdfkfkmkfkkkmkkkkkkkkkkfffffskkffkkk7*78fkqs87;;7q8=@O%q@;fffd7ksdq7O7fssfssqqfsqqsdsqdffsqqssffsssq7qss2",
"4;%**78wqddfff9+;fsfdffss8dqqs77sqsfsffqqffffsffffsfssffffq-7fsqfs87;;;7q-=*++q+;fsfdffss%%e7rsskss77sssqsfsqdfdsqss7qksqqq88qs2",
";;*O--8sqddqsc9+;qdfkckfqysfsq77e%qkssffdfkffffssqsfq8ffsq75sffsq%7;2;777%%%Ooq+;qdfkckfqrqs7%78ffq78sds7qfsqqsddqsqqqqssssq7qs4",
"7;%re7qqssdsqc8+:%sfssqqqdfks%%77ssssffkcckkkkkssfdffsssq7qqqffs*;O22;7q%%%%*O7+:%sfssqqquss7q77qssqqsssqqqfq8sfdssqqq7sssq7%qsO",
"87-%7qddssswff9X*uOdss77qdkc7O%q7sffffsfkkkkkkfqskffckksq87qsfsq%7*7;77q77*+*-%X*uOdss77qsqsuyqq7qsqqdsqqqdfqqqqsfddqqqsq7q8rqs7",
"7-77esdddswfkf;X@=qqqqryqdkqO7q%7fffffffkkkkkks7skkcfcnfq575ff7q7Oqsq7:qq-OO--%X@=qqqqryqssssqssqqq5qfssqsdksqqq8sfd8qqqq7qq7qse",
"77%rs7ddfkq7ff;+OOqsqqqqfffq%7q7qfffssffkkkkkks7fmkffkk52q7;ss;77%q%O7sd8O%37;%+OOqsqqqqffsssssssq88sfssssfkfqqs7qfdsq8qqqq77sq%",
"%e7qq7ssdfsOqc8+*-q7qssqskfq%;7qqqkksffffkkckcdffkkfffs7q7%777qqs77%O7ssq%%377q+*-q7qssqskq7uqfsq8qsssssqskkfqqsqqssqq8qqqq-7s8r",
"%77q7-fdssf%sf8+;%eqsqssffk7%;;7sqsfsffffkkcfffffsfks7qqs7%q%7uqq778%7qqe7%%%7f+;%eqsqssffe--%fsqqqqsssqqskkdds8sssq7qqqqsq7sqqq",
"7q%77%sssssqff9+;eqs8qssfsks%%22778ssfsdfkkkfs8fkffkf87qq%7sqqqr77777qq7:7s7*7s+;eqs8qssfqq777sqssqqfssqqdkfdqqqssq75uqqssqsqrrq",
"q7%77uqssfsqsk8+;qqqqqsfsdks=7772;qqsfssffkfffsffsssfsqq77ss77%7qq777qq77qq7%7f+;qqqqqsfssqr7s7ssssssffsqskfssss8qs5qsqq7qsq877q",
"77*77qsdfsssqq;@;qqqsqqfqdf8O7s7%%7qssffffdfkfffqqqsf87777ss77777q7e777%%7-7-qs@;qqqsqqfqsffqsqqsq8sdffdssffqssqsqq78sqq78sq8qq8",
"q77qswskssqfsq:+-qqsqssqs>s%O7qq%%%8dsfkksqskfssq8sss7:su77sq-eqqqq7%777%-%-qs7+-qqsqssqs-7fqq8qqqqsdddfssdkdsqssq777qsq77q77;;q",
"y77qsssfsssf7:8+-7sqqqgfssd77;us%7s7fqfkfssffkffd7%qsq7qsq8qq7rq7777%%7rr-%qfs7+-7sqqqgfss=qe:sqqqsdfdssssdkffssssqqqqqqq778q;;;",
"q5wssssfdsssss8X*rr77;fsdfVfr%7qqskk77qffdffdfkffs7%7sq78qqq77qq7qss7%%77eeqqq7X*rr77;fsddqu-7sq7qsssfsssssdkfdqsfsqqq8qqq77q73&",
"qqqssdsfddssdf8+;777qqffffnk7Oqs7qfmf%;dffffffkffq77rss77qqq77qq77sdq%:777qqq7;+;777qqfffsqq7qsq8qsssssssssdkddssdsqqqqqqq877%%<",
"aqsdfdsfddsddf8X*-7eqfkfsdkf77sfqqsffq7sdfcfsfkff7O=7qsqqqq7778ss5sfs77777%qs7=X*-7eqfkfsssuqqssqsssssssdssfdkfssffsqqqq8qq8;O%,",
"dssdfdddddsdfd8X*7qssffssdkfdq%8fs7qsdq7fkkfffccf%O77qqqq88qqfsqssssq778q7%;87%X*7qssffsssfsyqsssssdsdssdfssdkfdsfssqqqq8qq;;%O1",
"sddffdasssfddf8X-qsssfdssdffds8qksqqsdsqfkfsfckkd%-fq7q8q77qqffqqssqqqqq7%%7778X-qsssfdsssssqqsqssffssssffssfkfsdfssqqq8qq877%O1",
"adffdffddsdfff8+;qqsssfssdfdsqsqf8%sdqsfqkfsfffff7;qqqqqq77qsssq7ssqsq7;-%-r77s+;qqsssfssdssssssssffddssfssfkfsfssdqqqsq88q7%=O1",
"sdffdfdssdfffs8+;qssssssdddsqq7%q;%qsdddfffsffsffsqqqqssr7qssqsq7qq8qq7;7%-777r+;qssssssdsssssqffssfsdsssfffdfddfsssqq87q7q;%OO1",
";:;2;;;;;;;5;;*X*;=;=;;=;;;;;;;;;===O==;===;;;;==@=;;;=O*;8>=O+o=O=++@O=;:;;O=+X*;=;=;;=;;;;;;;;;===O==$$$$$$$$$=@=;;;=O*OOO$O+,"
};
